<svg version="1.1" xmlns="http://www.w3.org/2000/svg" viewBox="0 0 758.6421650597613 559.1675116048516" width="2275.926495179284" height="1677.5025348145548">
  <!-- svg-source:excalidraw -->
  
  <defs>
    <style class="style-fonts">
      @font-face {
        font-family: "Virgil";
        src: url("https://excalidraw.com/Virgil.woff2");
      }
      @font-face {
        font-family: "Cascadia";
        src: url("https://excalidraw.com/Cascadia.woff2");
      }
    </style>
    
  </defs>
  <rect x="0" y="0" width="758.6421650597613" height="559.1675116048516" fill="#ffffff"></rect><g stroke-linecap="round" transform="translate(10 94.21676497820334) rotate(0 369.32108252988064 227.4753733133241)"><path d="M7.86 8.16 C7.86 8.16, 7.86 8.16, 7.86 8.16 M7.86 8.16 C7.86 8.16, 7.86 8.16, 7.86 8.16 M3.66 19.09 C7.06 14.81, 14.74 8.46, 18.1 2.48 M3.66 19.09 C9.15 12.81, 15.06 7.33, 18.1 2.48 M2.75 26.24 C7.58 16.82, 15.42 9.27, 24.4 1.33 M2.75 26.24 C10.69 16.49, 18.04 7.56, 24.4 1.33 M1.83 33.39 C11.88 22.97, 21.23 9.08, 30.7 0.18 M1.83 33.39 C13.13 21.12, 22.54 9.14, 30.7 0.18 M1.57 39.79 C7.16 32.17, 14.7 22.8, 34.37 2.05 M1.57 39.79 C12.03 26.08, 23.1 14.55, 34.37 2.05 M1.96 45.43 C12.33 34.78, 22.46 22.5, 39.36 2.41 M1.96 45.43 C13.92 32.91, 25.49 18.87, 39.36 2.41 M1.7 51.83 C16.97 35.29, 31.61 19.63, 45 2.02 M1.7 51.83 C17.93 33.35, 33.91 14.74, 45 2.02 M1.44 58.23 C11.9 44.93, 25.69 31.71, 49.99 2.38 M1.44 58.23 C19.21 37.16, 39.18 15.59, 49.99 2.38 M1.83 63.87 C17.5 46.26, 30.79 27.14, 55.63 1.98 M1.83 63.87 C13.1 51.68, 25.23 38.81, 55.63 1.98 M1.57 70.27 C16.03 55, 28.57 39.54, 60.62 2.34 M1.57 70.27 C18.08 50.48, 35.23 31.05, 60.62 2.34 M1.97 75.91 C20.02 53.08, 41.78 30.73, 66.26 1.95 M1.97 75.91 C24.61 49.94, 47.86 23.16, 66.26 1.95 M1.71 82.31 C25.56 53.03, 48.12 26.12, 71.25 2.31 M1.71 82.31 C20.52 60.28, 39.04 38.79, 71.25 2.31 M1.44 88.71 C16.08 71.67, 33.12 52.31, 76.89 1.91 M1.44 88.71 C19.13 66.82, 39.08 45.99, 76.89 1.91 M1.84 94.35 C21.84 71.33, 38.35 51.81, 81.88 2.27 M1.84 94.35 C22.34 70.78, 41 48.45, 81.88 2.27 M1.58 100.75 C24.99 77.1, 44.88 52.61, 87.52 1.88 M1.58 100.75 C33.49 63.81, 66.9 26.23, 87.52 1.88 M1.97 106.39 C24.52 77.77, 51.07 49.33, 92.51 2.24 M1.97 106.39 C29.56 74.4, 56.85 40.99, 92.51 2.24 M1.71 112.79 C29.05 81.13, 54.4 51.34, 98.15 1.85 M1.71 112.79 C29.85 79.34, 59.22 46.93, 98.15 1.85 M1.45 119.19 C30.9 86.37, 61.31 50.56, 103.14 2.21 M1.45 119.19 C41.98 72.92, 81.98 26.32, 103.14 2.21 M1.84 124.83 C41.87 78.24, 83.44 30.79, 108.78 1.81 M1.84 124.83 C26.51 96.59, 49.75 68.99, 108.78 1.81 M1.58 131.23 C42.12 82.87, 82.12 37.12, 113.77 2.17 M1.58 131.23 C28.07 100.13, 53.02 72.08, 113.77 2.17 M1.98 136.87 C47.43 87.62, 92.29 37.6, 119.41 1.78 M1.98 136.87 C33.11 102.73, 63.59 65.49, 119.41 1.78 M1.72 143.27 C51.55 87.53, 101.01 29.74, 124.4 2.14 M1.72 143.27 C25.48 115.15, 50.02 86.45, 124.4 2.14 M1.45 149.67 C52.86 93.3, 99.99 35.56, 130.04 1.74 M1.45 149.67 C46.9 96.98, 90.6 47.15, 130.04 1.74 M1.85 155.31 C29.57 122.78, 59.23 88.98, 135.03 2.1 M1.85 155.31 C36.72 116.41, 71.63 77.28, 135.03 2.1 M1.59 161.71 C37.3 119.84, 76.2 75.03, 140.67 1.71 M1.59 161.71 C46.62 110.88, 90.75 58.82, 140.67 1.71 M1.98 167.35 C40.52 126.71, 76.84 82.75, 145.66 2.07 M1.98 167.35 C33.74 129.46, 66.48 92.54, 145.66 2.07 M1.72 173.75 C49.5 119.82, 97.44 63.59, 150.65 2.43 M1.72 173.75 C39.65 129.53, 79.92 84.76, 150.65 2.43 M1.46 180.14 C39.62 136.48, 76.48 94.13, 156.29 2.03 M1.46 180.14 C44.2 131.06, 87.79 82.52, 156.29 2.03 M1.85 185.79 C41.74 142.25, 81.48 96.57, 161.28 2.39 M1.85 185.79 C55.38 120.16, 112.49 57.04, 161.28 2.39 M1.59 192.19 C51.22 134.42, 102.82 76.03, 166.92 2 M1.59 192.19 C48.27 136.62, 95.05 82.65, 166.92 2 M1.99 197.83 C63.39 128.62, 120.79 62.26, 171.91 2.36 M1.99 197.83 C66.19 125.39, 129.36 52.22, 171.91 2.36 M1.72 204.23 C55.96 141.85, 109.63 81.38, 177.55 1.96 M1.72 204.23 C48.5 152.53, 94.92 99.32, 177.55 1.96 M1.46 210.62 C64.74 142.7, 124.61 70.88, 182.54 2.32 M1.46 210.62 C48.82 154.89, 96.61 99.2, 182.54 2.32 M1.86 216.27 C58.78 153.57, 111.33 89.07, 188.18 1.93 M1.86 216.27 C55.98 153.98, 110.74 90.98, 188.18 1.93 M1.6 222.66 C69.67 145.69, 137.12 69.94, 193.17 2.29 M1.6 222.66 C69.64 144.08, 137.03 65.85, 193.17 2.29 M1.99 228.31 C49.7 175.25, 95.21 121.88, 198.81 1.9 M1.99 228.31 C49.64 171.39, 98.95 117.01, 198.81 1.9 M1.73 234.71 C58.71 166.74, 118.37 100.41, 203.8 2.26 M1.73 234.71 C60.26 167.42, 119.86 99.57, 203.8 2.26 M1.47 241.1 C63.85 168.01, 126.98 96.76, 209.44 1.86 M1.47 241.1 C50.25 186.03, 97.98 131.24, 209.44 1.86 M1.86 246.75 C71.17 166.16, 141.58 87.85, 214.43 2.22 M1.86 246.75 C76.5 161.68, 151.54 76.66, 214.43 2.22 M1.6 253.14 C85.04 158.09, 167.97 64.01, 220.07 1.83 M1.6 253.14 C77.23 166.66, 152.47 79.55, 220.07 1.83 M2 258.79 C86.57 160.71, 173.51 62.11, 225.06 2.19 M2 258.79 C69.07 180.89, 138.25 101.94, 225.06 2.19 M1.73 265.19 C77.42 176.78, 155.04 87.13, 230.7 1.79 M1.73 265.19 C81.96 174.07, 162.15 82.87, 230.7 1.79 M1.47 271.58 C58.58 209.08, 113.94 144.48, 235.69 2.15 M1.47 271.58 C90.05 170.5, 178.63 69.86, 235.69 2.15 M1.87 277.23 C94.31 168.85, 186.47 62.86, 241.33 1.76 M1.87 277.23 C89.05 179.18, 174.8 80.62, 241.33 1.76 M1.61 283.62 C53.99 222.07, 108.12 161.75, 246.32 2.12 M1.61 283.62 C70.44 206.64, 137.11 129.96, 246.32 2.12 M2 289.27 C84.7 192.88, 166.73 96.99, 251.96 1.72 M2 289.27 C96.83 184.21, 188.9 76.21, 251.96 1.72 M1.74 295.66 C84.32 199.84, 169 102.94, 256.95 2.08 M1.74 295.66 C87.72 197.65, 173.21 98.53, 256.95 2.08 M1.48 302.06 C72.19 219.42, 144.93 136.29, 262.59 1.69 M1.48 302.06 C91.74 197.33, 181.85 92.8, 262.59 1.69 M1.87 307.71 C85.68 211.67, 170.11 117.14, 267.58 2.05 M1.87 307.71 C62.24 239.03, 122.58 170.61, 267.58 2.05 M1.61 314.1 C92.74 208.96, 184.78 104.6, 272.56 2.41 M1.61 314.1 C84.36 218.39, 168.05 122.7, 272.56 2.41 M2.01 319.75 C107.16 196.92, 214.69 75.22, 278.21 2.01 M2.01 319.75 C57.83 254.85, 114.43 189.53, 278.21 2.01 M1.74 326.14 C101.09 213.31, 197.94 102.17, 283.19 2.37 M1.74 326.14 C71.49 244.99, 142.36 164.28, 283.19 2.37 M1.48 332.54 C93.69 227.75, 184.59 122.95, 288.84 1.98 M1.48 332.54 C78.64 243.25, 155.41 153.97, 288.84 1.98 M1.88 338.19 C98.9 226.19, 197.91 112.54, 293.82 2.34 M1.88 338.19 C70.86 259.01, 138.82 180.4, 293.82 2.34 M1.62 344.58 C100.39 231.81, 199.87 116.47, 299.47 1.94 M1.62 344.58 C68.94 267.25, 136.31 190.31, 299.47 1.94 M2.01 350.23 C76.81 264.21, 151.3 177.68, 304.45 2.3 M2.01 350.23 C89.51 249.53, 177.29 149.53, 304.45 2.3 M1.75 356.62 C65.94 279.43, 130.72 204.61, 310.1 1.91 M1.75 356.62 C125.01 215.34, 247.45 74.25, 310.1 1.91 M1.49 363.02 C75.25 278.02, 147.72 193.01, 315.08 2.27 M1.49 363.02 C99.46 253.58, 195.35 142.66, 315.08 2.27 M1.88 368.66 C129.27 223.86, 256.16 76.87, 320.73 1.88 M1.88 368.66 C105.75 251.09, 207.67 133.06, 320.73 1.88 M1.62 375.06 C115.77 245.43, 228.5 115.58, 325.71 2.24 M1.62 375.06 C115.5 245.87, 228.89 114.93, 325.71 2.24 M2.02 380.71 C96.17 270.12, 190.59 160.32, 331.36 1.84 M2.02 380.71 C89.65 282.59, 176.25 182.87, 331.36 1.84 M1.75 387.1 C88.89 287.46, 177.73 186.08, 336.34 2.2 M1.75 387.1 C120.22 252.88, 238.12 118.13, 336.34 2.2 M1.49 393.5 C118.05 258.97, 235.66 123.84, 341.99 1.81 M1.49 393.5 C101.24 279.06, 200.44 164.31, 341.99 1.81 M1.89 399.14 C120.7 261.21, 239.22 126.06, 346.97 2.17 M1.89 399.14 C73.16 319.55, 143.18 238.72, 346.97 2.17 M1.63 405.54 C135.31 252.82, 266.23 101.8, 352.62 1.77 M1.63 405.54 C73.63 324.27, 145.14 242.1, 352.62 1.77 M2.02 411.18 C135.57 256.96, 268.56 104.41, 357.6 2.13 M2.02 411.18 C98.16 300.25, 194.93 189.08, 357.6 2.13 M1.76 417.58 C94.66 308.17, 188.72 200.05, 363.25 1.74 M1.76 417.58 C76.6 330.02, 151.87 244.41, 363.25 1.74 M1.5 423.98 C92.68 319.78, 183.79 215.77, 368.23 2.1 M1.5 423.98 C105.72 302.83, 211.26 181.55, 368.23 2.1 M1.89 429.62 C84.71 335.2, 168.24 239.05, 373.88 1.7 M1.89 429.62 C86.76 329.75, 172.97 231.51, 373.88 1.7 M2.94 434.51 C100.43 324.79, 195.86 215.64, 378.86 2.06 M2.94 434.51 C95.33 327.51, 188.9 220.17, 378.86 2.06 M4.65 438.65 C141.05 282, 276.16 126.29, 383.85 2.42 M4.65 438.65 C86.96 345.12, 168.87 250.46, 383.85 2.42 M5.7 443.53 C82.11 355.41, 160.3 264.77, 389.49 2.03 M5.7 443.53 C128.75 301.33, 251.94 159.19, 389.49 2.03 M8.72 446.16 C126.35 312, 243.74 177.04, 394.48 2.39 M8.72 446.16 C97.87 344.23, 184.92 244.13, 394.48 2.39 M11.08 449.54 C129.94 312.75, 247.98 175.53, 400.12 1.99 M11.08 449.54 C140.85 300.19, 271.7 150.6, 400.12 1.99 M14.1 452.16 C159.32 285.28, 304.81 117.83, 405.11 2.35 M14.1 452.16 C146.34 298.96, 279.98 145.84, 405.11 2.35 M18.43 453.28 C130.41 324.66, 241.65 197.77, 410.75 1.96 M18.43 453.28 C132.47 320.43, 246.96 188.66, 410.75 1.96 M22.76 454.39 C109.9 355.48, 195.53 256.51, 415.74 2.32 M22.76 454.39 C160.72 295.89, 299.03 135.75, 415.74 2.32 M26.44 456.26 C128.64 337.13, 230.98 218, 421.38 1.93 M26.44 456.26 C129.25 338.08, 231.64 220.94, 421.38 1.93 M32.74 455.11 C175.78 289.78, 318.66 123.35, 426.37 2.29 M32.74 455.11 C142.77 329.89, 251.77 203.83, 426.37 2.29 M37.72 455.47 C145.88 329.09, 254.06 204.74, 432.01 1.89 M37.72 455.47 C145.23 333.91, 252.03 212.14, 432.01 1.89 M43.37 455.08 C155.95 323.83, 270.65 192.71, 437 2.25 M43.37 455.08 C141.28 343.82, 238.01 233.12, 437 2.25 M48.35 455.44 C195.14 284.65, 341.09 116.29, 442.64 1.86 M48.35 455.44 C137.18 353.42, 226.15 251.14, 442.64 1.86 M54 455.04 C184.37 308, 312.58 158.87, 447.63 2.22 M54 455.04 C132.83 362.63, 211.65 271.68, 447.63 2.22 M58.98 455.4 C179.85 320.53, 298.2 183.52, 453.27 1.82 M58.98 455.4 C213.5 275.67, 369.38 97.09, 453.27 1.82 M64.63 455.01 C208.53 287.87, 354.85 120.93, 458.26 2.18 M64.63 455.01 C148.67 360.71, 232.53 264.43, 458.26 2.18 M69.61 455.37 C156.1 354.7, 245.58 252.94, 463.9 1.79 M69.61 455.37 C192.84 313.05, 316 171.66, 463.9 1.79 M74.6 455.73 C218.86 289.19, 364.63 123.31, 468.89 2.15 M74.6 455.73 C215.65 295.05, 356.54 132.64, 468.89 2.15 M80.24 455.33 C161.16 363.5, 240.65 270.87, 474.53 1.75 M80.24 455.33 C190.21 327.61, 301.3 200.79, 474.53 1.75 M85.23 455.69 C175.42 352.68, 266.48 248.21, 479.52 2.11 M85.23 455.69 C179.04 349.22, 272.51 241.45, 479.52 2.11 M90.87 455.3 C216.13 311.76, 340.94 166.59, 485.17 1.72 M90.87 455.3 C197.13 331.19, 304.08 207.36, 485.17 1.72 M95.86 455.66 C220.91 309.15, 347.65 163.84, 490.15 2.08 M95.86 455.66 C201.73 332.53, 307.73 210.84, 490.15 2.08 M101.5 455.26 C240.79 297.58, 379.83 137.94, 495.8 1.68 M101.5 455.26 C188.86 353.6, 276.16 252.92, 495.8 1.68 M106.49 455.62 C253.22 290.07, 399.15 122.2, 500.78 2.04 M106.49 455.62 C259.55 280.41, 410.95 106.24, 500.78 2.04 M112.13 455.23 C227.03 324.94, 340.18 192.64, 505.77 2.4 M112.13 455.23 C243.44 304.94, 375.44 152.97, 505.77 2.4 M117.12 455.59 C257.09 295.23, 397.68 135.89, 511.41 2.01 M117.12 455.59 C247.62 304.25, 379.48 152.96, 511.41 2.01 M122.76 455.2 C216.14 348.95, 307.37 242.72, 516.4 2.37 M122.76 455.2 C274.44 282.2, 425.12 108.87, 516.4 2.37 M127.75 455.56 C214.28 359.8, 299.16 262.01, 522.04 1.98 M127.75 455.56 C280.24 279.13, 432.79 104.84, 522.04 1.98 M133.39 455.16 C248.98 325.1, 364.31 192.67, 527.03 2.34 M133.39 455.16 C213.09 362.28, 293.54 269.78, 527.03 2.34 M138.38 455.52 C274.29 294.91, 412.91 135.18, 532.67 1.94 M138.38 455.52 C228.41 353.33, 316.23 251.82, 532.67 1.94 M144.02 455.13 C253.46 332.19, 360.15 208.35, 537.66 2.3 M144.02 455.13 C223.98 362.69, 304.8 269.4, 537.66 2.3 M149.01 455.49 C273.02 313.08, 398.21 169.8, 543.3 1.91 M149.01 455.49 C249.17 340.92, 348.53 226.99, 543.3 1.91 M154.65 455.09 C235.7 362.74, 315.69 270.01, 548.29 2.27 M154.65 455.09 C255.66 337.85, 357.78 220.68, 548.29 2.27 M159.64 455.45 C287.71 310.56, 415.45 163.63, 553.93 1.87 M159.64 455.45 C271.1 324.5, 384.42 194.08, 553.93 1.87 M165.28 455.06 C246.12 359.6, 330.85 263.85, 558.92 2.23 M165.28 455.06 C245.22 360.23, 326.02 267.21, 558.92 2.23 M170.27 455.42 C306.53 300.15, 444.06 143.63, 564.56 1.84 M170.27 455.42 C275.87 334.08, 380.9 212.87, 564.56 1.84 M175.91 455.02 C267.52 347.84, 361.07 241.66, 569.55 2.2 M175.91 455.02 C315.35 295.84, 454 135.62, 569.55 2.2 M180.9 455.38 C264.48 361.82, 346.63 266.44, 575.19 1.8 M180.9 455.38 C317.27 298.97, 453.33 142.58, 575.19 1.8 M185.89 455.74 C310.85 312.86, 434.62 169.36, 580.18 2.16 M185.89 455.74 C333.12 285.87, 481.45 115.75, 580.18 2.16 M191.53 455.35 C312.45 316.55, 431.58 179.46, 585.82 1.77 M191.53 455.35 C345.61 277.38, 500.28 99.74, 585.82 1.77 M196.52 455.71 C318.07 312.87, 441.24 171.39, 590.81 2.13 M196.52 455.71 C280.42 358.29, 364.7 261.25, 590.81 2.13 M202.16 455.31 C310 330.98, 417.36 208.84, 596.45 1.73 M202.16 455.31 C320.21 321.46, 437.49 187.28, 596.45 1.73 M207.15 455.67 C359.19 281.49, 509.85 108.66, 601.44 2.09 M207.15 455.67 C355.44 282.83, 505.42 110.3, 601.44 2.09 M212.79 455.28 C338.97 311.18, 461.85 169.91, 607.08 1.7 M212.79 455.28 C315.34 336.94, 418.94 218.02, 607.08 1.7 M217.78 455.64 C332.48 321.72, 447.96 187.51, 612.07 2.06 M217.78 455.64 C316.3 344.46, 414.07 232.24, 612.07 2.06 M223.42 455.25 C339.4 321.37, 454.42 188, 617.06 2.42 M223.42 455.25 C346.9 313.67, 470.15 172.24, 617.06 2.42 M228.41 455.61 C358 306.95, 485.53 160.31, 622.7 2.02 M228.41 455.61 C371.13 291.68, 513.56 127.53, 622.7 2.02 M234.05 455.21 C324.95 352.14, 413.27 250.11, 627.69 2.38 M234.05 455.21 C387.01 280.58, 538.95 104.83, 627.69 2.38 M239.04 455.57 C380.62 293.15, 523.11 129.97, 633.33 1.99 M239.04 455.57 C371.23 306.69, 501.2 156.82, 633.33 1.99 M244.68 455.18 C399.78 279.33, 553.19 102.48, 638.32 2.35 M244.68 455.18 C340.76 346.98, 435.9 237.8, 638.32 2.35 M249.67 455.54 C404.09 277.07, 558.21 100.4, 643.96 1.96 M249.67 455.54 C380.55 302.64, 512.73 150.65, 643.96 1.96 M255.31 455.14 C340.71 355.42, 425.88 256.72, 648.95 2.32 M255.31 455.14 C393.27 297.84, 531.5 138.48, 648.95 2.32 M260.3 455.5 C345.54 356.73, 429.55 258.82, 654.59 1.92 M260.3 455.5 C346.83 356.6, 432.28 257.84, 654.59 1.92 M265.94 455.11 C421.39 275.5, 578.61 95.5, 659.58 2.28 M265.94 455.11 C348.27 360.94, 429.33 267.83, 659.58 2.28 M270.93 455.47 C408.25 300.4, 543.09 144.39, 665.22 1.89 M270.93 455.47 C426.4 278.15, 580.84 100.24, 665.22 1.89 M276.57 455.07 C425.66 280.17, 577.06 107.48, 670.21 2.25 M276.57 455.07 C361.61 356.48, 445.99 259.3, 670.21 2.25 M281.56 455.43 C398.27 323.15, 511.96 191.16, 675.85 1.85 M281.56 455.43 C414.35 303.49, 546.89 150.46, 675.85 1.85 M287.2 455.04 C397.6 330.61, 506.51 203.61, 680.84 2.21 M287.2 455.04 C368 361.61, 448.07 269.84, 680.84 2.21 M292.19 455.4 C401.39 327.61, 513.29 200.84, 686.48 1.82 M292.19 455.4 C409.77 320.06, 528.46 184.52, 686.48 1.82 M297.18 455.76 C433.28 298.38, 571.74 139.53, 691.47 2.18 M297.18 455.76 C421.3 312.57, 544.62 170.18, 691.47 2.18 M302.82 455.36 C437.29 300.43, 573.14 144.37, 697.11 1.78 M302.82 455.36 C455.81 279.1, 611.08 100.33, 697.11 1.78 M307.81 455.72 C432.42 312.95, 557.88 168.28, 702.1 2.14 M307.81 455.72 C427.83 317.56, 548.01 178.9, 702.1 2.14 M313.45 455.33 C398.75 356.53, 485.59 256.11, 708.4 0.99 M313.45 455.33 C431.96 320.78, 549.91 185.79, 708.4 0.99 M318.44 455.69 C424.36 333.76, 529.82 214.26, 713.38 1.35 M318.44 455.69 C419.56 338.4, 520.09 222.27, 713.38 1.35 M324.08 455.29 C421.76 342.46, 520.7 228.61, 717.06 3.22 M324.08 455.29 C468.26 292.43, 611.52 128.6, 717.06 3.22 M329.07 455.65 C458.9 308.89, 589.76 159.22, 721.39 4.34 M329.07 455.65 C431.18 337.97, 533.89 220.73, 721.39 4.34 M334.71 455.26 C450.26 320.86, 569.01 185.33, 726.38 4.7 M334.71 455.26 C453.93 319.44, 573.39 183.11, 726.38 4.7 M339.7 455.62 C421.35 363.59, 500.93 271.96, 729.4 7.32 M339.7 455.62 C467.04 309.15, 595.19 162.36, 729.4 7.32 M345.34 455.23 C430.94 355.19, 518.1 255.99, 731.76 10.7 M345.34 455.23 C462.82 322.1, 579.62 187.74, 731.76 10.7 M350.33 455.59 C448.41 343.97, 544.12 234.31, 734.78 13.33 M350.33 455.59 C461.04 327.1, 572.1 198.81, 734.78 13.33 M355.97 455.19 C506.05 282.91, 656.51 110.6, 736.48 17.46 M355.97 455.19 C472.69 320.97, 589.63 186.38, 736.48 17.46 M360.96 455.55 C501.93 294.02, 641.16 132.91, 739.5 20.08 M360.96 455.55 C472.11 329.06, 581.79 203.38, 739.5 20.08 M366.6 455.16 C512.26 289.02, 656.25 122.22, 739.9 25.73 M366.6 455.16 C494.4 310.76, 621.32 164.75, 739.9 25.73 M371.59 455.52 C497.47 311.08, 622.53 167.26, 738.98 32.88 M371.59 455.52 C479.83 331.41, 587.07 208.17, 738.98 32.88 M377.23 455.12 C485.69 334.56, 591.1 212.74, 739.37 38.52 M377.23 455.12 C514.2 297.83, 650.4 139.83, 739.37 38.52 M382.22 455.48 C481.73 338.39, 583.16 221.86, 739.11 44.92 M382.22 455.48 C514.73 302.49, 649.12 148.45, 739.11 44.92 M387.86 455.09 C459.78 374.82, 530.94 292.68, 739.51 50.56 M387.86 455.09 C484.98 342.82, 581.77 230.88, 739.51 50.56 M392.85 455.45 C525.73 302.59, 660.19 147.98, 739.25 56.96 M392.85 455.45 C475.71 359.26, 558.65 263.72, 739.25 56.96 M398.49 455.05 C505.61 331.03, 614.3 207.68, 738.98 63.36 M398.49 455.05 C483.27 357.02, 569.41 258.08, 738.98 63.36 M403.48 455.41 C535.15 303.01, 666.61 150.31, 739.38 69 M403.48 455.41 C502.71 339.52, 601.79 224.94, 739.38 69 M409.12 455.02 C491.72 360.96, 572.6 268.64, 739.12 75.4 M409.12 455.02 C539.24 305.72, 669.1 156.13, 739.12 75.4 M414.11 455.38 C513.53 342.16, 611.51 229.02, 739.51 81.04 M414.11 455.38 C538.96 312.96, 661.51 170.95, 739.51 81.04 M419.09 455.74 C516.24 345.04, 614.47 231.42, 739.25 87.44 M419.09 455.74 C531.81 326.99, 644.64 197.86, 739.25 87.44 M424.74 455.34 C509.79 355.42, 597.8 254.89, 738.99 93.84 M424.74 455.34 C497.96 370.36, 572.56 284.72, 738.99 93.84 M429.72 455.7 C498.88 377.56, 568.97 296.61, 739.38 99.48 M429.72 455.7 C506.18 367.89, 581.8 280.62, 739.38 99.48 M435.37 455.31 C534.7 342.08, 632.57 227.31, 739.12 105.88 M435.37 455.31 C505.2 373.21, 576.15 292.33, 739.12 105.88 M440.35 455.67 C507.66 375.81, 577.62 295.82, 739.52 111.52 M440.35 455.67 C549.96 332.63, 658.62 208.12, 739.52 111.52 M446 455.28 C513.89 377.88, 581.75 301.84, 739.26 117.92 M446 455.28 C520.13 369.54, 594.49 283.53, 739.26 117.92 M450.98 455.64 C558.08 334.85, 664.05 213.41, 738.99 124.32 M450.98 455.64 C524.75 371.19, 598.43 286.01, 738.99 124.32 M456.63 455.24 C519.76 383.65, 579.35 312.41, 739.39 129.96 M456.63 455.24 C512.95 390.02, 568.63 324.92, 739.39 129.96 M461.61 455.6 C568.07 333.2, 674.62 211.04, 739.13 136.36 M461.61 455.6 C530.15 374.39, 600.69 294.34, 739.13 136.36 M467.26 455.21 C544.73 367.22, 619.62 280.35, 739.52 142 M467.26 455.21 C546.95 364.39, 625.13 274.58, 739.52 142 M472.24 455.57 C533.39 383.28, 595.72 312.42, 739.26 148.4 M472.24 455.57 C563.14 353.06, 653.95 248.88, 739.26 148.4 M477.89 455.17 C546.89 375.79, 616.29 296.17, 739 154.8 M477.89 455.17 C569.12 349.18, 661.28 243.55, 739 154.8 M482.87 455.53 C581.02 343.43, 679.76 232.53, 739.39 160.44 M482.87 455.53 C551.38 377.89, 618.81 298.83, 739.39 160.44 M488.52 455.14 C582.2 346.49, 675.45 239.24, 739.13 166.84 M488.52 455.14 C575.08 356.67, 661.81 257.35, 739.13 166.84 M493.5 455.5 C568.26 372.64, 641.92 287.12, 739.53 172.48 M493.5 455.5 C556.29 380.52, 620.34 307.58, 739.53 172.48 M499.15 455.1 C564.88 379.54, 631.89 302.72, 739.27 178.88 M499.15 455.1 C557.16 388.81, 613.34 324, 739.27 178.88 M504.13 455.46 C590.97 356.9, 679.39 256.58, 739 185.28 M504.13 455.46 C577.96 369.29, 651.91 284.67, 739 185.28 M509.78 455.07 C599.97 351.55, 688.2 250.91, 739.4 190.92 M509.78 455.07 C582.05 374.04, 653.4 291.53, 739.4 190.92 M514.77 455.43 C599.16 360.07, 683.37 262.37, 739.14 197.32 M514.77 455.43 C576.93 383.18, 640.43 310.95, 739.14 197.32 M520.41 455.03 C607.08 355.37, 691.79 256.02, 739.53 202.96 M520.41 455.03 C581.75 385.82, 641.04 316.65, 739.53 202.96 M525.4 455.39 C571.32 403.17, 618.26 351.32, 739.27 209.36 M525.4 455.39 C610.01 358.3, 694.09 261.83, 739.27 209.36 M530.38 455.75 C595.65 378.07, 663.89 300.53, 739.01 215.76 M530.38 455.75 C602.11 371.55, 674.37 287.95, 739.01 215.76 M536.03 455.36 C615.23 362, 693.5 271.43, 739.4 221.4 M536.03 455.36 C602.39 377.86, 670.17 300.81, 739.4 221.4 M541.01 455.72 C594.92 391.66, 650.44 329.37, 739.14 227.8 M541.01 455.72 C612.87 373.57, 686 289.91, 739.14 227.8 M546.66 455.33 C605.79 384.36, 665.51 316.89, 739.54 233.44 M546.66 455.33 C617.17 375.27, 687.19 294.29, 739.54 233.44 M551.64 455.69 C607.31 392.3, 661.76 327.11, 739.28 239.84 M551.64 455.69 C606.8 393.99, 659.69 332.71, 739.28 239.84 M557.29 455.29 C626.96 371.79, 700.49 289.61, 739.01 246.24 M557.29 455.29 C597.16 412.49, 634.83 369.23, 739.01 246.24 M562.27 455.65 C617.05 394.29, 672.67 330.11, 739.41 251.88 M562.27 455.65 C612.56 399.31, 662.58 341.79, 739.41 251.88 M567.92 455.26 C630.72 381.14, 694.19 308.16, 739.15 258.28 M567.92 455.26 C632.42 382.33, 694.87 309.6, 739.15 258.28 M572.9 455.62 C634.89 386.02, 693.94 313.62, 739.54 263.92 M572.9 455.62 C612.24 410.27, 651.45 364.31, 739.54 263.92 M578.55 455.22 C640.01 383.36, 703.2 313.44, 739.28 270.32 M578.55 455.22 C642.79 381.1, 707.21 306.41, 739.28 270.32 M583.53 455.58 C613.24 418.94, 647.61 380.05, 739.02 276.72 M583.53 455.58 C625.31 406.73, 666.14 358.17, 739.02 276.72 M589.18 455.19 C629.49 412.27, 664.69 368.31, 739.41 282.36 M589.18 455.19 C623.94 414.69, 657.66 374.29, 739.41 282.36 M594.16 455.55 C637.2 406.66, 682.24 355.93, 739.15 288.76 M594.16 455.55 C651.96 389.78, 709.32 324.63, 739.15 288.76 M599.81 455.15 C631.45 414.22, 667.91 377.73, 739.55 294.4 M599.81 455.15 C634.42 415.42, 669.46 374.51, 739.55 294.4 M604.79 455.51 C632.02 423.85, 659.22 391.07, 739.28 300.8 M604.79 455.51 C637.36 418.46, 671.84 379.18, 739.28 300.8 M610.44 455.12 C649.79 410.22, 688.5 361.85, 739.02 307.2 M610.44 455.12 C641.2 422.09, 670.13 386.63, 739.02 307.2 M615.42 455.48 C643.41 428.15, 668.13 397.05, 739.42 312.84 M615.42 455.48 C640.73 428.01, 667.55 399.34, 739.42 312.84 M621.07 455.08 C645.97 426.81, 671.82 398.39, 739.16 319.24 M621.07 455.08 C668.17 402.08, 715.14 347.5, 739.16 319.24 M626.05 455.44 C657.3 420.18, 688.88 383.67, 739.55 324.88 M626.05 455.44 C651 426.25, 676.95 397.58, 739.55 324.88 M631.7 455.05 C657.7 425.16, 682.39 394.52, 739.29 331.28 M631.7 455.05 C668.94 412.42, 704.91 370.07, 739.29 331.28 M636.68 455.41 C666.18 421.07, 697.78 382.93, 739.03 337.67 M636.68 455.41 C659.43 430.28, 679.06 404.7, 739.03 337.67 M642.33 455.01 C668.88 425.11, 694.18 399.56, 739.42 343.32 M642.33 455.01 C674.95 418.89, 707.14 380.34, 739.42 343.32 M647.31 455.37 C672.04 426.9, 699.23 393.93, 739.16 349.72 M647.31 455.37 C670.53 427.1, 694.52 399.19, 739.16 349.72 M652.3 455.73 C675.88 427.49, 697.08 402.11, 739.56 355.36 M652.3 455.73 C669.31 433.91, 688.25 413.21, 739.56 355.36 M657.94 455.34 C685.55 422.81, 712.74 392.4, 739.29 361.76 M657.94 455.34 C674.95 434.06, 693.51 414.71, 739.29 361.76 M662.93 455.7 C683.69 433.18, 699.03 413.45, 739.03 368.15 M662.93 455.7 C681.2 435.2, 700.36 412.87, 739.03 368.15 M668.57 455.31 C689.23 433.52, 705.15 410.62, 739.43 373.8 M668.57 455.31 C689.4 430.41, 712.77 404.78, 739.43 373.8 M673.56 455.67 C694.44 431, 714.29 406.28, 739.17 380.19 M673.56 455.67 C694.78 429.04, 717.96 404.77, 739.17 380.19 M679.2 455.27 C703.33 429.48, 724.56 400.65, 739.56 385.84 M679.2 455.27 C698.31 434.16, 716.85 411.51, 739.56 385.84 M684.19 455.63 C705.95 430.81, 726.2 407.4, 739.3 392.24 M684.19 455.63 C707.29 431.12, 726.95 406.07, 739.3 392.24 M689.83 455.24 C705.32 435.19, 721.56 419.14, 739.04 398.63 M689.83 455.24 C709.04 432.05, 729.28 409.08, 739.04 398.63 M694.82 455.6 C706.86 441.61, 717.59 426.02, 739.43 404.28 M694.82 455.6 C709.84 439.36, 724.1 422.96, 739.43 404.28 M700.46 455.2 C709.84 445.26, 720.18 434.6, 739.17 410.67 M700.46 455.2 C710.79 442.98, 721.31 431.83, 739.17 410.67 M705.45 455.56 C710.73 446.34, 718.73 439.63, 739.57 416.32 M705.45 455.56 C714.09 443.67, 725.54 432.78, 739.57 416.32 M709.13 457.43 C721 445.17, 729.43 431.83, 738.65 423.47 M709.13 457.43 C715.91 449.18, 722.72 441.55, 738.65 423.47 M715.42 456.28 C723.29 447.27, 729.03 437.8, 738.39 429.87 M715.42 456.28 C719.68 450.46, 726.25 444.43, 738.39 429.87 M722.38 454.38 C726.47 450.35, 732.75 441.95, 740.75 433.25 M722.38 454.38 C728.38 449.12, 733.47 442.55, 740.75 433.25" stroke="#a5d8ff" stroke-width="0.5" fill="none"></path><path d="M32 0 M32 0 C287.4 -0.84, 542.1 -0.99, 706.64 0 M32 0 C268.64 0.63, 505.63 0.05, 706.64 0 M706.64 0 C729.09 1.05, 737.59 10.48, 738.64 32 M706.64 0 C729.22 0.13, 739.56 11.53, 738.64 32 M738.64 32 C738.1 147.61, 736.98 259.95, 738.64 422.95 M738.64 32 C740.4 148.97, 740.9 265.58, 738.64 422.95 M738.64 422.95 C737.88 442.36, 727.18 454.38, 706.64 454.95 M738.64 422.95 C740.83 443.27, 726.87 454.96, 706.64 454.95 M706.64 454.95 C458.83 455.51, 210.52 454.91, 32 454.95 M706.64 454.95 C471.16 456.83, 235.87 456.59, 32 454.95 M32 454.95 C10.33 454.98, 0.46 445.92, 0 422.95 M32 454.95 C10.65 453.79, -1.68 444.04, 0 422.95 M0 422.95 C-2.44 305.79, -1.4 186.1, 0 32 M0 422.95 C0.14 274.31, -0.44 127.17, 0 32 M0 32 C-1.32 10.93, 9.12 1.08, 32 0 M0 32 C0.65 9.03, 8.49 0.15, 32 0" stroke="#1971c2" stroke-width="1" fill="none"></path></g><g transform="translate(22.480549336562035 10) rotate(0 133.199951171875 22.5)"><text x="0" y="0" font-family="Virgil, Segoe UI Emoji" font-size="36px" fill="#000000" text-anchor="start" style="white-space: pre;" direction="ltr" dominant-baseline="text-before-edge">/channel/{uuid}</text></g><g stroke-linecap="round" transform="translate(335.645112419165 10.523121708782156) rotate(0 45.46769285330953 21.97687829121783)"><path d="M2.92 2.54 C2.92 2.54, 2.92 2.54, 2.92 2.54 M2.92 2.54 C2.92 2.54, 2.92 2.54, 2.92 2.54 M0.7 11.2 C2.87 8.71, 8.95 4.17, 10.54 -0.12 M0.7 11.2 C3.79 7.08, 7.28 4.07, 10.54 -0.12 M0.43 17.6 C4.97 11.98, 7.31 7.65, 13.55 2.51 M0.43 17.6 C3.12 14.89, 6.46 10.53, 13.55 2.51 M0.83 23.25 C8.3 16.48, 12.44 8.74, 19.2 2.11 M0.83 23.25 C6.64 15.43, 13.99 7.43, 19.2 2.11 M1.22 28.89 C10.5 21.99, 14.68 13.04, 24.19 2.47 M1.22 28.89 C8.72 19.99, 15.44 11.17, 24.19 2.47 M0.96 35.29 C10.38 24.7, 17.3 15.49, 29.17 2.83 M0.96 35.29 C9.7 25.43, 18.36 16.63, 29.17 2.83 M2.67 39.42 C13.09 27.43, 25.49 11.67, 34.82 2.44 M2.67 39.42 C10.5 31.09, 16.8 21.29, 34.82 2.44 M5.69 42.04 C13.6 32.93, 22.41 20.73, 39.8 2.8 M5.69 42.04 C17.16 28.21, 28.58 15.37, 39.8 2.8 M8.05 45.42 C24.67 28.23, 36.34 9.43, 45.45 2.4 M8.05 45.42 C21.86 28.61, 36.12 12.33, 45.45 2.4 M13.69 45.03 C22.41 35.32, 34.87 22.44, 50.43 2.76 M13.69 45.03 C23.16 34.92, 31.47 26.15, 50.43 2.76 M18.68 45.39 C25.09 35.43, 33.5 26.92, 56.08 2.37 M18.68 45.39 C30.72 30.99, 43.37 17.65, 56.08 2.37 M24.32 44.99 C35.6 31.12, 43.76 19.91, 61.06 2.73 M24.32 44.99 C35.98 31.53, 48.11 16.72, 61.06 2.73 M29.31 45.35 C40.77 31.52, 55.01 18.2, 66.05 3.09 M29.31 45.35 C38.16 34.92, 48.67 22.53, 66.05 3.09 M34.3 45.71 C41.23 34.48, 53.05 26.32, 71.69 2.7 M34.3 45.71 C46.98 29.39, 60.62 15.97, 71.69 2.7 M39.94 45.32 C48.17 32.35, 59.14 22.57, 76.68 3.06 M39.94 45.32 C50.76 32.56, 63.36 20.26, 76.68 3.06 M44.93 45.68 C56.63 32.32, 66.55 19.78, 82.32 2.66 M44.93 45.68 C55.41 34.14, 64.85 23.98, 82.32 2.66 M50.57 45.29 C62.39 31.79, 72.57 19.35, 87.31 3.02 M50.57 45.29 C58.67 36.92, 65.38 28.28, 87.31 3.02 M55.56 45.65 C64.6 33.76, 70.98 25.03, 90.33 5.65 M55.56 45.65 C65.7 33.37, 75.4 23.6, 90.33 5.65 M61.2 45.25 C70.4 35.97, 75.03 29.46, 93.35 8.27 M61.2 45.25 C71.33 34.66, 81.35 23.29, 93.35 8.27 M66.19 45.61 C71.89 38.37, 77.11 31.66, 93.09 14.67 M66.19 45.61 C75.78 32.87, 86.28 21.88, 93.09 14.67 M71.17 45.97 C77.81 40.83, 84.36 34.2, 92.82 21.07 M71.17 45.97 C77.03 40.28, 82.58 33.14, 92.82 21.07 M76.82 45.58 C81.27 40.21, 90.07 33.33, 93.22 26.71 M76.82 45.58 C82.82 38.35, 89.26 31.41, 93.22 26.71 M81.8 45.94 C86.37 40.96, 91.77 37.12, 92.96 33.11 M81.8 45.94 C85.93 40.15, 90.26 36.43, 92.96 33.11" stroke="#a5d8ff" stroke-width="0.5" fill="none"></path><path d="M10.99 0 M10.99 0 C30.5 0.6, 46.23 -1.54, 79.95 0 M10.99 0 C36.6 1.06, 60.21 0.77, 79.95 0 M79.95 0 C87.91 0.49, 89.44 2.68, 90.94 10.99 M79.95 0 C86.56 -0.3, 93.03 5.23, 90.94 10.99 M90.94 10.99 C90.82 19.78, 89.23 24.75, 90.94 32.97 M90.94 10.99 C90.8 18.47, 89.92 28.12, 90.94 32.97 M90.94 32.97 C92.76 39.66, 85.39 42.84, 79.95 43.95 M90.94 32.97 C89.44 41.22, 88.92 44.53, 79.95 43.95 M79.95 43.95 C59.63 44.67, 40.11 44.1, 10.99 43.95 M79.95 43.95 C60.07 43.05, 41.34 44.35, 10.99 43.95 M10.99 43.95 C4.55 42.14, 1.73 39.94, 0 32.97 M10.99 43.95 C3.77 45.23, -0.61 38.23, 0 32.97 M0 32.97 C0.69 25.82, 1.98 15.7, 0 10.99 M0 32.97 C-0.42 25.82, 0.75 20.52, 0 10.99 M0 10.99 C1.1 5.44, 2.09 0.76, 10.99 0 M0 10.99 C0.64 2.05, 2.52 -1.34, 10.99 0" stroke="#1971c2" stroke-width="1" fill="none"></path></g><g stroke-linecap="round" transform="translate(559.588629163478 10.523121708782156) rotate(0 45.46769285330953 21.97687829121783)"><path d="M2.92 2.54 C2.92 2.54, 2.92 2.54, 2.92 2.54 M2.92 2.54 C2.92 2.54, 2.92 2.54, 2.92 2.54 M0.7 11.2 C2.93 6.73, 7.72 4.17, 10.54 -0.12 M0.7 11.2 C2.87 8.5, 5.9 5.05, 10.54 -0.12 M0.43 17.6 C6.71 10.05, 10.35 5.37, 13.55 2.51 M0.43 17.6 C3.96 13.27, 8.69 8.12, 13.55 2.51 M0.83 23.25 C8.12 15.79, 13.43 6.13, 19.2 2.11 M0.83 23.25 C5.6 17.97, 11.25 12.45, 19.2 2.11 M1.22 28.89 C7.14 19.88, 14.81 15.46, 24.19 2.47 M1.22 28.89 C6.21 22.56, 10.26 17.5, 24.19 2.47 M0.96 35.29 C9.49 23.83, 17.55 16.57, 29.17 2.83 M0.96 35.29 C12.46 23.13, 22 11.36, 29.17 2.83 M2.67 39.42 C11.51 31.03, 14.45 22.89, 34.82 2.44 M2.67 39.42 C10.33 30.29, 17.47 21.46, 34.82 2.44 M5.69 42.04 C14.38 32.02, 21 21.39, 39.8 2.8 M5.69 42.04 C14.38 33.79, 20.3 25.38, 39.8 2.8 M8.05 45.42 C18.06 31.28, 31.08 20.74, 45.45 2.4 M8.05 45.42 C22.93 29.06, 35.99 12.56, 45.45 2.4 M13.69 45.03 C24.23 36.49, 32.9 26.4, 50.43 2.76 M13.69 45.03 C20.97 35.06, 29.23 25.69, 50.43 2.76 M18.68 45.39 C33.1 28.51, 44.08 14.02, 56.08 2.37 M18.68 45.39 C30.13 33.86, 40.54 20.53, 56.08 2.37 M24.32 44.99 C37.54 29.01, 47.78 16.32, 61.06 2.73 M24.32 44.99 C35.43 31.11, 48.68 19.03, 61.06 2.73 M29.31 45.35 C40.81 34.63, 48.41 22.05, 66.05 3.09 M29.31 45.35 C37.26 35.23, 46.66 23.05, 66.05 3.09 M34.3 45.71 C45.45 29.66, 59.57 15.09, 71.69 2.7 M34.3 45.71 C41.99 37.13, 51.33 26.85, 71.69 2.7 M39.94 45.32 C49.01 33.48, 58.49 22.24, 76.68 3.06 M39.94 45.32 C50.01 33.77, 60 22.02, 76.68 3.06 M44.93 45.68 C52.41 34.73, 62.61 26.46, 82.32 2.66 M44.93 45.68 C52.96 34.25, 62.68 24.79, 82.32 2.66 M50.57 45.29 C63.13 29.23, 79.71 16.25, 87.31 3.02 M50.57 45.29 C58.13 36.34, 65.89 26.91, 87.31 3.02 M55.56 45.65 C61.85 37.69, 71.57 29.42, 90.33 5.65 M55.56 45.65 C63.49 37.56, 69.94 27.99, 90.33 5.65 M61.2 45.25 C71.9 33.87, 85.41 18.29, 93.35 8.27 M61.2 45.25 C72.88 33.22, 83.86 19.49, 93.35 8.27 M66.19 45.61 C71.87 36.92, 80.82 31.64, 93.09 14.67 M66.19 45.61 C75.7 34.7, 86.24 23.47, 93.09 14.67 M71.17 45.97 C74.9 41.59, 79.83 35.26, 92.82 21.07 M71.17 45.97 C76.15 39.75, 82.5 33.87, 92.82 21.07 M76.82 45.58 C80.28 42.34, 83.7 37.49, 93.22 26.71 M76.82 45.58 C81.14 41.19, 85.59 35.22, 93.22 26.71 M81.8 45.94 C84.63 41.83, 87.31 36.99, 92.96 33.11 M81.8 45.94 C85.96 40.15, 91.1 36, 92.96 33.11" stroke="#ffc9c9" stroke-width="0.5" fill="none"></path><path d="M10.99 0 M10.99 0 C28.88 1.47, 43.37 -0.3, 79.95 0 M10.99 0 C30.76 0.71, 49.73 -0.67, 79.95 0 M79.95 0 C85.99 0.1, 90.13 5.23, 90.94 10.99 M79.95 0 C87.9 -0.87, 91.44 2.91, 90.94 10.99 M90.94 10.99 C92.58 19.87, 89.44 24.33, 90.94 32.97 M90.94 10.99 C91.23 19.53, 90.98 28.21, 90.94 32.97 M90.94 32.97 C89.4 40.38, 86.75 45.21, 79.95 43.95 M90.94 32.97 C89.86 41.6, 86.9 41.92, 79.95 43.95 M79.95 43.95 C64.03 45.15, 47.56 42.58, 10.99 43.95 M79.95 43.95 C60.08 43.72, 41.68 43.25, 10.99 43.95 M10.99 43.95 C3.66 43.96, 1.82 39.69, 0 32.97 M10.99 43.95 C2.15 42.74, 1.67 40.07, 0 32.97 M0 32.97 C-0.76 29.73, 1.6 21.35, 0 10.99 M0 32.97 C0.21 27.52, -0.61 21.61, 0 10.99 M0 10.99 C0.42 4.24, 4.76 -0.45, 10.99 0 M0 10.99 C-0.11 5.02, 3.38 -0.42, 10.99 0" stroke="#e03131" stroke-width="1" fill="none"></path></g><g transform="translate(663.0234749918465 15) rotate(0 35.88198089599615 17.5)"><text x="0" y="0" font-family="Virgil, Segoe UI Emoji" font-size="28px" fill="#000000" text-anchor="start" style="white-space: pre;" direction="ltr" dominant-baseline="text-before-edge">client</text></g><g transform="translate(441.3180296393872 15) rotate(0 42.27998352050781 17.5)"><text x="0" y="0" font-family="Virgil, Segoe UI Emoji" font-size="28px" fill="#000000" text-anchor="start" style="white-space: pre;" direction="ltr" dominant-baseline="text-before-edge">server</text></g><g stroke-linecap="round" transform="translate(43.97725386952095 119.0350020372999) rotate(0 336.09980470125487 33.42168092608101)"><path d="M4.45 3.87 C4.45 3.87, 4.45 3.87, 4.45 3.87 M4.45 3.87 C4.45 3.87, 4.45 3.87, 4.45 3.87 M3.53 11.02 C6.08 8.89, 7.55 7.89, 10.75 2.72 M3.53 11.02 C5.33 9.2, 6.93 7.04, 10.75 2.72 M1.96 18.93 C4.95 15.33, 11.41 9.39, 17.7 0.81 M1.96 18.93 C6.19 13.46, 11.61 8.2, 17.7 0.81 M2.35 24.57 C8.16 15.44, 18.38 6.67, 22.69 1.17 M2.35 24.57 C9.83 15.99, 15.33 9.4, 22.69 1.17 M2.75 30.21 C10.03 18.39, 17.94 11.81, 28.33 0.78 M2.75 30.21 C9.17 23.67, 15.75 15.58, 28.33 0.78 M2.48 36.61 C10.63 29.27, 17.1 22.53, 33.32 1.14 M2.48 36.61 C14.92 24.12, 25.27 9.14, 33.32 1.14 M2.88 42.25 C16.48 29.51, 26.4 11.97, 38.96 0.74 M2.88 42.25 C14.95 28.05, 28.42 12.6, 38.96 0.74 M3.27 47.9 C16.15 35.83, 26.09 22.64, 43.95 1.1 M3.27 47.9 C12.74 36.6, 22.19 25.51, 43.95 1.1 M3.01 54.29 C17.72 39.99, 29.24 21.07, 49.59 0.71 M3.01 54.29 C17.67 38.11, 32.64 20.28, 49.59 0.71 M3.41 59.94 C18.89 43.52, 30.5 28.09, 54.58 1.07 M3.41 59.94 C15.31 45.93, 27.85 32.15, 54.58 1.07 M6.43 62.56 C25.08 42.84, 38.08 25.65, 60.22 0.68 M6.43 62.56 C23.86 42.96, 41.97 22.52, 60.22 0.68 M8.79 65.94 C26.19 42.2, 45.72 22.15, 65.21 1.04 M8.79 65.94 C22.55 51.17, 35.85 34.19, 65.21 1.04 M13.12 67.06 C27.4 49.15, 47.11 30.64, 70.85 0.64 M13.12 67.06 C36.75 41.57, 58.69 13.8, 70.85 0.64 M18.76 66.66 C40.1 43.01, 61.29 16.05, 75.84 1 M18.76 66.66 C39.83 41.75, 59.75 18.58, 75.84 1 M23.75 67.02 C39.02 48.5, 54.03 28.27, 81.48 0.61 M23.75 67.02 C40.92 47.51, 59.56 26.16, 81.48 0.61 M29.39 66.63 C45.34 47.46, 63.27 25.04, 86.47 0.97 M29.39 66.63 C42.52 52.95, 53.59 39.94, 86.47 0.97 M34.38 66.99 C55.05 43.93, 74.79 22.77, 92.11 0.57 M34.38 66.99 C48.43 51.75, 61.68 34.59, 92.11 0.57 M40.02 66.59 C56.83 45.57, 76.44 26.08, 97.1 0.93 M40.02 66.59 C54.25 50.88, 68.37 33.52, 97.1 0.93 M45.01 66.95 C58.91 50.94, 72.94 33.79, 102.74 0.54 M45.01 66.95 C65.34 44.57, 84.91 20.95, 102.74 0.54 M50 67.31 C64.13 51.45, 75.07 36.34, 107.73 0.9 M50 67.31 C66.98 49.27, 83.61 30.17, 107.73 0.9 M55.64 66.92 C77.75 42.41, 98.42 18.79, 113.37 0.5 M55.64 66.92 C77.22 44.38, 97.67 19.82, 113.37 0.5 M60.63 67.28 C82.79 41.4, 107.68 14.93, 118.36 0.86 M60.63 67.28 C80.92 42.72, 101.8 18.49, 118.36 0.86 M66.27 66.88 C81.57 50.9, 93.66 36.51, 123.35 1.22 M66.27 66.88 C78.42 51.69, 90.63 38.79, 123.35 1.22 M71.26 67.24 C94.39 40.75, 116.97 16.14, 128.99 0.83 M71.26 67.24 C85.18 51.38, 97.65 38.03, 128.99 0.83 M76.9 66.85 C95.61 43.32, 114.53 21.43, 133.98 1.19 M76.9 66.85 C89.38 51.82, 102.19 37.26, 133.98 1.19 M81.89 67.21 C97.64 49.44, 115.48 32.11, 139.62 0.79 M81.89 67.21 C99.43 48.32, 114.76 28.96, 139.62 0.79 M87.53 66.81 C107.8 42.37, 125.12 21.54, 144.61 1.15 M87.53 66.81 C103.76 48.42, 118.5 32.07, 144.61 1.15 M92.52 67.17 C112.37 42.73, 134.22 22.71, 150.25 0.76 M92.52 67.17 C108.57 47.62, 123.63 31, 150.25 0.76 M98.16 66.78 C111.69 49.41, 126.26 33.23, 155.24 1.12 M98.16 66.78 C112.66 52.1, 125.53 34.77, 155.24 1.12 M103.15 67.14 C113.81 54.71, 127.17 37.37, 160.88 0.73 M103.15 67.14 C124.68 41.88, 146.94 17.23, 160.88 0.73 M108.79 66.74 C123.99 48.69, 141.39 30.89, 165.87 1.09 M108.79 66.74 C130.11 39.89, 153.08 15.12, 165.87 1.09 M113.78 67.1 C131.61 46.95, 146.75 29.55, 171.51 0.69 M113.78 67.1 C130.62 49.12, 147.35 29.37, 171.51 0.69 M119.42 66.71 C140.58 45.12, 157.76 18.94, 176.5 1.05 M119.42 66.71 C140.46 42.89, 163.16 18.32, 176.5 1.05 M124.41 67.07 C140.18 46.67, 161.68 25.12, 182.14 0.66 M124.41 67.07 C143.34 44.29, 164.14 21.66, 182.14 0.66 M130.05 66.68 C143.01 53.89, 156.87 37.51, 187.13 1.02 M130.05 66.68 C142.29 51.75, 154.93 36.93, 187.13 1.02 M135.04 67.04 C148.34 51.29, 164.48 32.49, 192.77 0.62 M135.04 67.04 C146.99 52.51, 159.46 36.99, 192.77 0.62 M140.68 66.64 C162.37 41.75, 183.51 17.98, 197.76 0.98 M140.68 66.64 C159 42.96, 179.31 21.07, 197.76 0.98 M145.67 67 C164.75 43.26, 188.83 17.48, 203.4 0.59 M145.67 67 C158.47 50.68, 172.75 35.61, 203.4 0.59 M150.65 67.36 C163.97 54.3, 175.78 36.35, 208.39 0.95 M150.65 67.36 C170.49 44.11, 190.43 22.32, 208.39 0.95 M156.3 66.97 C174.33 43.69, 195.8 22.06, 214.03 0.55 M156.3 66.97 C168.8 53.73, 180.76 39.02, 214.03 0.55 M161.28 67.33 C175.58 52.63, 186.89 39.2, 219.02 0.91 M161.28 67.33 C173.43 54.73, 185.31 40.76, 219.02 0.91 M166.93 66.93 C187.74 43.43, 208.88 21.26, 224.01 1.27 M166.93 66.93 C180.47 51.66, 195 36.13, 224.01 1.27 M171.91 67.29 C189.84 44.11, 212.68 21.32, 229.65 0.88 M171.91 67.29 C189.65 46.36, 206.1 27.16, 229.65 0.88 M177.56 66.9 C194.95 46.45, 210.29 30.61, 234.64 1.24 M177.56 66.9 C196.25 45.75, 215.99 25.27, 234.64 1.24 M182.55 67.26 C202.71 46.11, 220.55 21.34, 240.28 0.84 M182.55 67.26 C204.77 40.95, 225.98 16.77, 240.28 0.84 M188.19 66.86 C209.62 40.4, 233.89 17.43, 245.27 1.2 M188.19 66.86 C206.53 45.12, 225.89 23.67, 245.27 1.2 M193.18 67.22 C210.44 44.97, 229.24 24.59, 250.91 0.81 M193.18 67.22 C215.92 42.06, 237.27 17.29, 250.91 0.81 M198.82 66.83 C214.83 49.84, 231.28 31.95, 255.9 1.17 M198.82 66.83 C221.22 40.11, 243.75 13.99, 255.9 1.17 M203.81 67.19 C226.37 40.79, 246.66 18.4, 261.54 0.77 M203.81 67.19 C216.89 52.84, 231.07 37.95, 261.54 0.77 M209.45 66.79 C230.2 42.84, 249.99 21.07, 266.53 1.13 M209.45 66.79 C230.15 41.61, 253.51 15.1, 266.53 1.13 M214.44 67.15 C234.77 45.93, 252.09 23.98, 272.17 0.74 M214.44 67.15 C228.56 51.38, 240.73 36.49, 272.17 0.74 M220.08 66.76 C240.59 42.36, 262.88 20.78, 277.16 1.1 M220.08 66.76 C230.47 54.17, 242.27 41.03, 277.16 1.1 M225.07 67.12 C236.64 50.91, 253.1 35.67, 282.8 0.71 M225.07 67.12 C240.03 49.07, 254.83 32.49, 282.8 0.71 M230.71 66.73 C245.08 50.83, 258.18 35.15, 287.79 1.07 M230.71 66.73 C246.24 48.89, 260.65 31.55, 287.79 1.07 M235.7 67.09 C249.63 51.97, 261.47 40.54, 293.43 0.67 M235.7 67.09 C249.01 53.38, 260.7 37.66, 293.43 0.67 M241.34 66.69 C257.1 48.5, 267.64 34.55, 298.42 1.03 M241.34 66.69 C255.86 48.24, 271.82 31.78, 298.42 1.03 M246.33 67.05 C260.99 48.38, 275.06 34.23, 304.06 0.64 M246.33 67.05 C265.68 44.75, 285.28 20.17, 304.06 0.64 M251.31 67.41 C264.27 51.04, 280.3 32.61, 309.05 1 M251.31 67.41 C272.24 41.12, 294.28 16.19, 309.05 1 M256.96 67.02 C272.45 52.09, 286.22 33.38, 314.69 0.6 M256.96 67.02 C274.19 45.88, 290.96 26.31, 314.69 0.6 M261.94 67.38 C275.87 50.25, 292.07 33.3, 319.68 0.96 M261.94 67.38 C277.81 49.07, 292.88 31.67, 319.68 0.96 M267.59 66.98 C283.59 50, 296.56 32.76, 324.66 1.32 M267.59 66.98 C283.81 47.7, 301.79 27.02, 324.66 1.32 M272.57 67.34 C286.62 52.74, 302.57 32.54, 330.31 0.93 M272.57 67.34 C289.03 48.46, 305.46 30.92, 330.31 0.93 M278.22 66.95 C296.9 44.6, 315.02 22.49, 335.29 1.29 M278.22 66.95 C297.43 42.71, 318.54 19.53, 335.29 1.29 M283.2 67.31 C305.31 41.74, 327.14 16.67, 340.94 0.89 M283.2 67.31 C294.92 51.44, 309.54 37.83, 340.94 0.89 M288.85 66.91 C305.51 47.53, 321.38 27.76, 345.92 1.25 M288.85 66.91 C304.64 49.03, 318.83 30.46, 345.92 1.25 M293.83 67.27 C316.54 41.33, 335.6 17.11, 351.57 0.86 M293.83 67.27 C308.81 51.36, 322.32 35.63, 351.57 0.86 M299.48 66.88 C314.69 46.29, 334.59 27.45, 356.55 1.22 M299.48 66.88 C312.07 52.4, 326.42 35.59, 356.55 1.22 M304.46 67.24 C320.71 50.32, 334.92 32.33, 362.2 0.82 M304.46 67.24 C322.57 45.57, 341.9 24.2, 362.2 0.82 M310.11 66.84 C327.44 48.46, 343.92 29.89, 367.18 1.18 M310.11 66.84 C332.33 40.35, 355.17 14.52, 367.18 1.18 M315.09 67.2 C335.37 43.38, 358.55 17.06, 372.83 0.79 M315.09 67.2 C334.61 43.8, 355.23 20.5, 372.83 0.79 M320.74 66.81 C340.7 45.09, 360.05 22.02, 377.81 1.15 M320.74 66.81 C337.12 47.08, 355.93 24.94, 377.81 1.15 M325.72 67.17 C338.75 52.32, 352.22 37.92, 383.46 0.76 M325.72 67.17 C342.12 47.66, 357.9 30.77, 383.46 0.76 M331.37 66.78 C353.18 44.41, 372.04 21.34, 388.44 1.12 M331.37 66.78 C349.08 45.77, 368.22 25.02, 388.44 1.12 M336.35 67.14 C350.22 50.11, 366.8 31.21, 394.09 0.72 M336.35 67.14 C357.23 40.77, 379.87 17.37, 394.09 0.72 M342 66.74 C361.41 41.58, 382.26 19.41, 399.07 1.08 M342 66.74 C359.44 45.13, 379.43 22.73, 399.07 1.08 M346.98 67.1 C370.74 41.58, 389.86 14.56, 404.72 0.69 M346.98 67.1 C368.86 41.13, 391.15 16.27, 404.72 0.69 M351.97 67.46 C369.42 43.73, 388.8 23.76, 409.7 1.05 M351.97 67.46 C366.16 49.06, 381.97 33.11, 409.7 1.05 M357.61 67.07 C377.97 47.14, 395.93 24.14, 415.35 0.65 M357.61 67.07 C375.6 47.61, 392.76 28.44, 415.35 0.65 M362.6 67.43 C376.91 50.9, 392.78 31.9, 420.33 1.01 M362.6 67.43 C384.34 41.86, 405.88 15.81, 420.33 1.01 M368.24 67.03 C387.38 43.74, 406.02 23.96, 425.32 1.37 M368.24 67.03 C381.28 51.74, 394.74 37.07, 425.32 1.37 M373.23 67.39 C389.72 51.38, 405.68 31.79, 430.96 0.98 M373.23 67.39 C395.03 42.71, 417.33 16.48, 430.96 0.98 M378.87 67 C394.91 49.55, 408.99 30.66, 435.95 1.34 M378.87 67 C402.13 40.52, 423.78 13.83, 435.95 1.34 M383.86 67.36 C398.36 50.3, 411.91 34.07, 441.59 0.94 M383.86 67.36 C401.51 46.95, 419.62 26.68, 441.59 0.94 M389.5 66.96 C407.55 45.22, 425.3 24.64, 446.58 1.3 M389.5 66.96 C403.69 51.21, 417.44 35.19, 446.58 1.3 M394.49 67.32 C410.02 49.34, 424.13 32.92, 452.22 0.91 M394.49 67.32 C406.37 53.48, 417.51 39.56, 452.22 0.91 M400.13 66.93 C415.17 50.61, 429.42 33.23, 457.21 1.27 M400.13 66.93 C419.35 44.84, 438.27 23.03, 457.21 1.27 M405.12 67.29 C426.36 45.11, 445.48 21.74, 462.85 0.87 M405.12 67.29 C422.39 47.47, 439.55 29.29, 462.85 0.87 M410.76 66.89 C421.96 50.81, 435.27 37.52, 467.84 1.23 M410.76 66.89 C427.54 45.81, 446.57 25.66, 467.84 1.23 M415.75 67.25 C430.64 47.54, 449.16 28.81, 473.48 0.84 M415.75 67.25 C437.9 41.88, 460.9 14.42, 473.48 0.84 M421.39 66.86 C441.64 46.96, 460.1 24.34, 478.47 1.2 M421.39 66.86 C438.81 46.77, 457.43 26.88, 478.47 1.2 M426.38 67.22 C439.69 53.85, 453.05 39.43, 484.11 0.8 M426.38 67.22 C443.23 48.71, 458.77 30.6, 484.11 0.8 M432.02 66.82 C444.53 52.78, 457.24 38.22, 489.1 1.17 M432.02 66.82 C451.08 44.62, 469.7 23.31, 489.1 1.17 M437.01 67.18 C454.14 45.85, 470.86 27.75, 494.74 0.77 M437.01 67.18 C456 44.69, 476.41 22.39, 494.74 0.77 M442.65 66.79 C462.85 46.68, 481.3 21.52, 499.73 1.13 M442.65 66.79 C458.15 49.92, 474.51 31.82, 499.73 1.13 M447.64 67.15 C459.34 50.9, 473.93 36.33, 505.37 0.74 M447.64 67.15 C467.81 44.61, 488.54 20.3, 505.37 0.74 M453.28 66.76 C469.26 48.77, 484.03 33.66, 510.36 1.1 M453.28 66.76 C472.65 47.49, 489.05 25.89, 510.36 1.1 M458.27 67.12 C472.42 54.27, 484.03 38.1, 516 0.7 M458.27 67.12 C471.83 52.03, 485.04 36.37, 516 0.7 M463.26 67.48 C484.55 41.48, 508.97 17.21, 520.99 1.06 M463.26 67.48 C481.3 46.05, 499.8 24.34, 520.99 1.06 M468.9 67.08 C487.9 49.11, 504.59 27.62, 525.98 1.42 M468.9 67.08 C487.4 43.79, 506.97 21.61, 525.98 1.42 M473.89 67.44 C488.41 55.64, 498.31 39.58, 531.62 1.03 M473.89 67.44 C487.45 51.64, 500.98 35.62, 531.62 1.03 M479.53 67.05 C495.82 46.38, 515.66 26.16, 536.61 1.39 M479.53 67.05 C500.48 42.47, 524.1 17.97, 536.61 1.39 M484.52 67.41 C499.64 50.6, 513.38 31.35, 542.25 0.99 M484.52 67.41 C502.76 45.6, 521.23 24.79, 542.25 0.99 M490.16 67.01 C508.54 46.73, 526.04 23.12, 547.24 1.35 M490.16 67.01 C504.79 50.96, 519.09 33.03, 547.24 1.35 M495.15 67.37 C514.25 44.59, 536.12 20.96, 552.88 0.96 M495.15 67.37 C508.82 49.92, 524.1 35.07, 552.88 0.96 M500.79 66.98 C520.2 47.82, 539.1 26.16, 557.87 1.32 M500.79 66.98 C513.65 50.67, 527.29 36.45, 557.87 1.32 M505.78 67.34 C527.2 41.51, 549.21 16.16, 563.51 0.92 M505.78 67.34 C520.37 50.51, 533.28 34.44, 563.51 0.92 M511.42 66.94 C530.95 43.39, 551.64 22.12, 568.5 1.28 M511.42 66.94 C523.53 53.36, 536.49 40.57, 568.5 1.28 M516.41 67.3 C532.32 51.04, 544.01 36.14, 574.14 0.89 M516.41 67.3 C539.4 39.59, 562.02 13.84, 574.14 0.89 M522.05 66.91 C539.96 46.63, 556.14 30.71, 579.13 1.25 M522.05 66.91 C535 53.18, 548.11 36.99, 579.13 1.25 M527.04 67.27 C550.82 39.68, 572.11 15.95, 584.77 0.85 M527.04 67.27 C543.31 48.85, 558.22 30.95, 584.77 0.85 M532.68 66.87 C553.08 46.81, 570.61 25.69, 589.76 1.21 M532.68 66.87 C550.63 45.85, 567.65 24.9, 589.76 1.21 M537.67 67.23 C554.38 48.95, 567.66 29.75, 595.4 0.82 M537.67 67.23 C556.46 45.05, 574.8 24.76, 595.4 0.82 M543.31 66.84 C558.51 51.54, 572.62 33.67, 600.39 1.18 M543.31 66.84 C560.86 46.55, 579.19 26.15, 600.39 1.18 M548.3 67.2 C562.5 52.39, 576.57 36.22, 606.03 0.79 M548.3 67.2 C564.46 48.24, 581.61 28.11, 606.03 0.79 M553.94 66.81 C563.08 52.47, 577.21 39.34, 611.02 1.15 M553.94 66.81 C575.03 41.79, 598.64 15.62, 611.02 1.15 M558.93 67.17 C573.11 50.11, 589.9 28.81, 616.66 0.75 M558.93 67.17 C570.52 52.82, 581.52 40.28, 616.66 0.75 M563.92 67.53 C582.33 46.97, 600.42 25.1, 621.65 1.11 M563.92 67.53 C586.47 42.01, 609.46 16.15, 621.65 1.11 M569.56 67.13 C586.22 50.35, 599.04 32.02, 627.29 0.72 M569.56 67.13 C588.87 42.95, 609.83 20.44, 627.29 0.72 M574.55 67.49 C588.81 51.53, 599.82 35.73, 632.28 1.08 M574.55 67.49 C588.47 49.91, 603.7 34.73, 632.28 1.08 M580.19 67.1 C601.39 44.94, 619.99 22.58, 637.27 1.44 M580.19 67.1 C600.03 44.65, 621.59 20.4, 637.27 1.44 M585.18 67.46 C599.88 52.66, 608.85 38.07, 642.91 1.04 M585.18 67.46 C604.86 43.34, 626.02 21.99, 642.91 1.04 M590.82 67.06 C608.02 46.31, 626.06 25.19, 647.9 1.4 M590.82 67.06 C607.17 48.72, 622.22 30.7, 647.9 1.4 M595.81 67.42 C613.74 49.1, 630.08 28.88, 653.54 1.01 M595.81 67.42 C607.72 53.21, 618.96 39.06, 653.54 1.01 M601.45 67.03 C616.13 51.37, 627.91 34.05, 659.18 0.61 M601.45 67.03 C616.81 50.33, 631.67 32.48, 659.18 0.61 M606.44 67.39 C628.08 39.94, 653.35 13.88, 663.51 1.73 M606.44 67.39 C628.56 43.85, 650.06 18.45, 663.51 1.73 M612.08 66.99 C624.37 52.42, 637.72 37.45, 667.19 3.6 M612.08 66.99 C632.27 43.15, 653.88 19.33, 667.19 3.6 M617.07 67.35 C631.27 49.43, 647.33 29.86, 670.21 6.22 M617.07 67.35 C637.77 44.92, 655.46 23.19, 670.21 6.22 M622.71 66.96 C638.96 48.48, 653.78 28.93, 671.91 10.36 M622.71 66.96 C640.63 47.33, 656.83 27.57, 671.91 10.36 M627.7 67.32 C640.75 51.82, 652.48 35.99, 672.31 16 M627.7 67.32 C639.74 54.26, 649.77 40.68, 672.31 16 M633.34 66.92 C644.9 52.86, 659.8 34.84, 672.05 22.4 M633.34 66.92 C648.15 50.52, 663.02 31.71, 672.05 22.4 M638.33 67.28 C648.82 55.67, 655.33 45.97, 672.44 28.04 M638.33 67.28 C649.84 53.53, 662.59 39.09, 672.44 28.04 M643.97 66.89 C649.65 57.87, 656.92 52.21, 672.18 34.44 M643.97 66.89 C654.07 54.43, 666.76 41.64, 672.18 34.44 M648.96 67.25 C651.91 63.3, 656.76 55.73, 672.58 40.08 M648.96 67.25 C656.32 59.84, 662.69 49.76, 672.58 40.08 M654.6 66.86 C659.6 63.42, 662.01 55.81, 672.97 45.72 M654.6 66.86 C661.38 59.38, 667.28 52.02, 672.97 45.72 M658.27 68.72 C662.68 63.18, 668.49 56.76, 672.71 52.12 M658.27 68.72 C663.39 63.39, 669.24 57.43, 672.71 52.12" stroke="#a5d8ff" stroke-width="0.5" fill="none"></path><path d="M16.71 0 M16.71 0 C225.93 0.78, 434.97 0.36, 655.49 0 M16.71 0 C215.86 1.98, 415.37 2.33, 655.49 0 M655.49 0 C666.64 1.34, 673.75 4.59, 672.2 16.71 M655.49 0 C667.76 0.64, 670.51 7.29, 672.2 16.71 M672.2 16.71 C671.27 29.86, 671.58 42.19, 672.2 50.13 M672.2 16.71 C672.8 26.75, 672.56 36.25, 672.2 50.13 M672.2 50.13 C671.81 60.76, 668.03 66.68, 655.49 66.84 M672.2 50.13 C674.05 61.89, 667.45 67.74, 655.49 66.84 M655.49 66.84 C409.75 66.49, 165.87 65.46, 16.71 66.84 M655.49 66.84 C469.68 68.56, 284.29 68.41, 16.71 66.84 M16.71 66.84 C4.88 65.35, 1.9 59.84, 0 50.13 M16.71 66.84 C3.66 68.98, -0.26 59.96, 0 50.13 M0 50.13 C-0.03 43.37, -1.57 32.27, 0 16.71 M0 50.13 C-0.94 38.58, 0.37 27.54, 0 16.71 M0 16.71 C1.87 4.83, 6.17 1.71, 16.71 0 M0 16.71 C1.93 6.17, 7.03 1.25, 16.71 0" stroke="#1971c2" stroke-width="1" fill="none"></path></g><g transform="translate(302.838039815706 137.23434424233304) rotate(0 75.61396789550781 17.500000000000014)"><text x="0" y="0" font-family="Virgil, Segoe UI Emoji" font-size="28px" fill="#000000" text-anchor="start" style="white-space: pre;" direction="ltr" dominant-baseline="text-before-edge">&lt;Header /&gt;</text></g><g stroke-linecap="round" transform="translate(49.52107816941816 225.2487375830937) rotate(0 328.43091389269966 90.10599466962663)"><path d="M7.86 8.16 C7.86 8.16, 7.86 8.16, 7.86 8.16 M7.86 8.16 C7.86 8.16, 7.86 8.16, 7.86 8.16 M3.66 19.09 C9.65 12.93, 13.95 8.3, 18.1 2.48 M3.66 19.09 C7.26 13.93, 13.55 9.18, 18.1 2.48 M2.75 26.24 C6.78 19.01, 13.84 13.72, 24.4 1.33 M2.75 26.24 C11.05 17.15, 18.58 8.54, 24.4 1.33 M2.48 32.64 C12.15 20.17, 20.24 11.61, 30.7 0.18 M2.48 32.64 C7.49 26.12, 13.48 19.65, 30.7 0.18 M2.88 38.28 C13.56 23.29, 27.81 10.55, 34.37 2.05 M2.88 38.28 C10.31 28.66, 20.1 19.25, 34.37 2.05 M2.62 44.68 C12.16 35.46, 18.63 27.01, 39.36 2.41 M2.62 44.68 C10.68 36, 18.96 26.11, 39.36 2.41 M2.36 51.07 C19.52 32.79, 34.16 16.06, 45 2.02 M2.36 51.07 C17.77 32.69, 32.61 16.33, 45 2.02 M2.75 56.72 C16.87 38.81, 34.47 19.32, 49.99 2.38 M2.75 56.72 C20.99 35.95, 39.88 15.33, 49.99 2.38 M2.49 63.11 C18.05 48.23, 30.01 33.5, 55.63 1.98 M2.49 63.11 C23.86 39.69, 43.7 15.54, 55.63 1.98 M2.88 68.76 C19.22 49.19, 34.11 34.35, 60.62 2.34 M2.88 68.76 C14.45 53.91, 25.85 40.55, 60.62 2.34 M2.62 75.16 C20.13 53.45, 38.56 33.92, 66.26 1.95 M2.62 75.16 C20.16 55.32, 37.77 35.99, 66.26 1.95 M2.36 81.55 C26.72 52.57, 52.13 21.88, 71.25 2.31 M2.36 81.55 C21.75 59.59, 40.72 37.22, 71.25 2.31 M2.76 87.2 C18.26 67.39, 35.44 48.66, 76.89 1.91 M2.76 87.2 C24.35 61.55, 45.73 37.25, 76.89 1.91 M2.49 93.59 C30.81 61.47, 58.01 32.52, 81.88 2.27 M2.49 93.59 C20.15 73.18, 37.82 53.96, 81.88 2.27 M2.89 99.24 C28.42 71.07, 52.42 41.84, 87.52 1.88 M2.89 99.24 C27.9 70.71, 54.25 41.02, 87.52 1.88 M2.63 105.64 C27.58 75.02, 55.25 46.61, 92.51 2.24 M2.63 105.64 C33.06 70.99, 64.54 34.78, 92.51 2.24 M2.37 112.03 C23.19 88.23, 45.07 63.02, 98.15 1.85 M2.37 112.03 C30.22 80.52, 56.44 48.45, 98.15 1.85 M2.76 117.68 C36.53 81.31, 67.49 44.32, 103.14 2.21 M2.76 117.68 C24.83 93.47, 47.12 67.16, 103.14 2.21 M2.5 124.07 C30.92 94.18, 57.79 62.28, 108.78 1.81 M2.5 124.07 C30.55 91.83, 58.46 59.17, 108.78 1.81 M2.89 129.72 C34.7 93.97, 65.81 56.48, 113.77 2.17 M2.89 129.72 C32.77 94.34, 63.66 59.19, 113.77 2.17 M2.63 136.11 C28.21 103.37, 57.73 74.54, 119.41 1.78 M2.63 136.11 C42.85 90.96, 83.21 45.43, 119.41 1.78 M2.37 142.51 C37.59 104.64, 67.07 66.02, 124.4 2.14 M2.37 142.51 C29.87 112.83, 56.24 80.88, 124.4 2.14 M2.77 148.16 C46.57 97.1, 92.46 43.31, 130.04 1.74 M2.77 148.16 C34.77 112.97, 64.75 76.13, 130.04 1.74 M1.19 156.06 C40.73 110.55, 82.27 63.22, 135.03 2.1 M1.19 156.06 C31.65 121.74, 59.19 88.78, 135.03 2.1 M2.24 160.95 C44.33 114.07, 83.2 64.8, 140.67 1.71 M2.24 160.95 C36.86 121.54, 70.94 83.86, 140.67 1.71 M3.95 165.08 C34.12 132.2, 65.17 97.9, 145.66 2.07 M3.95 165.08 C44.83 118.06, 85.56 71.62, 145.66 2.07 M5.66 169.22 C63.25 105.9, 116.94 42.86, 150.65 2.43 M5.66 169.22 C59.52 105.6, 115.25 41.29, 150.65 2.43 M8.68 171.84 C42.27 134.29, 71.79 97.22, 156.29 2.03 M8.68 171.84 C60.04 112.57, 111.41 54.4, 156.29 2.03 M11.69 174.47 C46.85 135.32, 82.22 93.8, 161.28 2.39 M11.69 174.47 C51.27 131.62, 90.69 85.56, 161.28 2.39 M14.71 177.09 C61.3 122.51, 106.17 70.35, 166.92 2 M14.71 177.09 C66.7 116.29, 119.68 54.99, 166.92 2 M18.39 178.96 C80.77 107.74, 140.09 37.52, 171.91 2.36 M18.39 178.96 C56.96 134.52, 94.33 90.56, 171.91 2.36 M23.37 179.32 C65.95 132.44, 107.42 84.54, 177.55 1.96 M23.37 179.32 C71.54 123.38, 122.44 66.14, 177.55 1.96 M27.71 180.44 C68.33 136.99, 106.14 90.63, 182.54 2.32 M27.71 180.44 C72.64 128.98, 118.92 78.39, 182.54 2.32 M32.69 180.8 C72.54 133.3, 113.65 84.67, 188.18 1.93 M32.69 180.8 C88.75 114.6, 145.31 50.9, 188.18 1.93 M37.68 181.16 C80.43 132.37, 124.72 82.36, 193.17 2.29 M37.68 181.16 C82.77 131.53, 127.54 80.08, 193.17 2.29 M43.32 180.76 C83.61 133.49, 124.32 91.37, 198.81 1.9 M43.32 180.76 C77.49 139.68, 113.74 99.38, 198.81 1.9 M48.31 181.12 C84.15 137.93, 124.18 92.08, 203.8 2.26 M48.31 181.12 C95.34 129.18, 139.48 77.57, 203.8 2.26 M53.95 180.73 C108.73 115.59, 166.58 50.94, 209.44 1.86 M53.95 180.73 C107.56 117.23, 162.02 55.07, 209.44 1.86 M58.94 181.09 C91.46 143.77, 123.52 106.25, 214.43 2.22 M58.94 181.09 C114.25 116.89, 169 54, 214.43 2.22 M64.58 180.69 C111.15 123.97, 157.93 71.38, 220.07 1.83 M64.58 180.69 C97.33 142.62, 131.44 105, 220.07 1.83 M69.57 181.05 C116.67 127.46, 162.04 72.15, 225.06 2.19 M69.57 181.05 C111.02 134.1, 152.17 84.98, 225.06 2.19 M75.21 180.66 C136.52 110.57, 197.56 38.54, 230.7 1.79 M75.21 180.66 C133.78 113.62, 191.78 45.51, 230.7 1.79 M80.2 181.02 C133.15 120.53, 187.39 59.22, 235.69 2.15 M80.2 181.02 C143.39 111.24, 205.07 40.17, 235.69 2.15 M85.84 180.62 C136.73 124.48, 183.42 67.39, 241.33 1.76 M85.84 180.62 C126.1 133.03, 167.85 86.68, 241.33 1.76 M90.83 180.98 C129.19 136.58, 166.85 92.12, 246.32 2.12 M90.83 180.98 C133.3 132.63, 175.71 83.1, 246.32 2.12 M96.47 180.59 C150.17 117.87, 202.56 59.69, 251.96 1.72 M96.47 180.59 C152.49 116.44, 209.93 51.62, 251.96 1.72 M101.46 180.95 C163.12 107.9, 224.8 35.97, 256.95 2.08 M101.46 180.95 C160.76 111.49, 222.88 41.06, 256.95 2.08 M107.1 180.55 C157.86 122.24, 208.3 65.81, 262.59 1.69 M107.1 180.55 C143.11 141.63, 177.48 100.26, 262.59 1.69 M112.09 180.91 C153.07 130.31, 194.64 84.87, 267.58 2.05 M112.09 180.91 C143.58 144, 178.11 105.11, 267.58 2.05 M117.73 180.52 C164.9 126.37, 211.53 72.45, 272.56 2.41 M117.73 180.52 C158.78 131.05, 200.95 81.75, 272.56 2.41 M122.72 180.88 C155.73 143.08, 187.56 103.07, 278.21 2.01 M122.72 180.88 C179.4 114.1, 236.51 48.08, 278.21 2.01 M128.36 180.49 C176.18 123.93, 222.79 68.23, 283.19 2.37 M128.36 180.49 C189.67 110.12, 249.93 40.74, 283.19 2.37 M133.35 180.85 C174.17 133.48, 217.07 84.44, 288.84 1.98 M133.35 180.85 C173.86 136.55, 211.79 91.9, 288.84 1.98 M138.99 180.45 C194.79 117.77, 249.45 56.15, 293.82 2.34 M138.99 180.45 C190.03 122.68, 241.13 63.82, 293.82 2.34 M143.98 180.81 C204.65 111.83, 263.47 44.8, 299.47 1.94 M143.98 180.81 C175.34 141.98, 208.03 105.88, 299.47 1.94 M148.97 181.17 C182.78 140.31, 216.42 101.76, 304.45 2.3 M148.97 181.17 C196.19 125.81, 243.27 71.65, 304.45 2.3 M154.61 180.78 C208.15 116.7, 262.25 53.92, 310.1 1.91 M154.61 180.78 C212.74 112.08, 270.86 46.39, 310.1 1.91 M159.6 181.14 C207.85 127.91, 252.74 75.88, 315.08 2.27 M159.6 181.14 C221.38 110.27, 281.44 38.96, 315.08 2.27 M165.24 180.74 C206.67 130.73, 249.06 83.14, 320.73 1.88 M165.24 180.74 C202.57 139.16, 239.1 96.42, 320.73 1.88 M170.23 181.1 C223.66 118.52, 280.09 58.61, 325.71 2.24 M170.23 181.1 C226.05 119.72, 280.81 54.98, 325.71 2.24 M175.87 180.71 C228.49 122.32, 277.29 66.1, 331.36 1.84 M175.87 180.71 C216.45 134.79, 254.27 89.72, 331.36 1.84 M180.86 181.07 C230.63 123.83, 276.88 69.34, 336.34 2.2 M180.86 181.07 C241.78 110.72, 302.27 41.35, 336.34 2.2 M186.5 180.67 C243.82 114.23, 301.55 48.94, 341.99 1.81 M186.5 180.67 C225.59 138.31, 263.07 95.39, 341.99 1.81 M191.49 181.03 C243.05 123.81, 292.6 64.46, 346.97 2.17 M191.49 181.03 C251.77 112.75, 312.23 44.86, 346.97 2.17 M197.13 180.64 C253.85 116.11, 308.85 51.26, 352.62 1.77 M197.13 180.64 C255.36 112.3, 315.62 42.87, 352.62 1.77 M202.12 181 C250.02 126.32, 296.19 71.85, 357.6 2.13 M202.12 181 C246.03 130.61, 289.92 80.09, 357.6 2.13 M207.76 180.6 C258.63 118.93, 313.23 60.58, 363.25 1.74 M207.76 180.6 C246.41 137.6, 284.62 94.2, 363.25 1.74 M212.75 180.96 C267.53 120.15, 317.22 62.31, 368.23 2.1 M212.75 180.96 C257.77 129.81, 303.26 79, 368.23 2.1 M218.39 180.57 C251.36 142.65, 282.12 105.69, 373.88 1.7 M218.39 180.57 C269.48 120.27, 322.09 61.38, 373.88 1.7 M223.38 180.93 C273.36 123.46, 325.21 62.84, 378.86 2.06 M223.38 180.93 C268.21 129.42, 311.98 77.72, 378.86 2.06 M229.02 180.53 C289.42 115.06, 343.99 48.61, 383.85 2.42 M229.02 180.53 C279.62 121.78, 330.27 62.17, 383.85 2.42 M234.01 180.9 C284.89 119.73, 336.18 61.28, 389.49 2.03 M234.01 180.9 C265.98 142.43, 299.34 105.43, 389.49 2.03 M239.65 180.5 C289.64 122.48, 340.18 67.73, 394.48 2.39 M239.65 180.5 C284.69 127.56, 329.25 74.61, 394.48 2.39 M244.64 180.86 C275.25 144.51, 310.17 107.63, 400.12 1.99 M244.64 180.86 C285.32 131.59, 327.92 84.36, 400.12 1.99 M250.28 180.47 C286.03 141.4, 319.67 101.72, 405.11 2.35 M250.28 180.47 C285.1 140.89, 319.79 99.03, 405.11 2.35 M255.27 180.83 C316.04 111.48, 378.1 40.53, 410.75 1.96 M255.27 180.83 C309.42 120.63, 361.47 60.04, 410.75 1.96 M260.91 180.43 C311.15 122.08, 365.05 59.54, 415.74 2.32 M260.91 180.43 C310.41 122.11, 360.17 63.9, 415.74 2.32 M265.9 180.79 C313.22 125.01, 362.43 72.71, 421.38 1.93 M265.9 180.79 C321.59 115.68, 376.57 52.83, 421.38 1.93 M270.89 181.15 C332.19 113.12, 392.14 41.79, 426.37 2.29 M270.89 181.15 C321.09 122.95, 370.01 65.37, 426.37 2.29 M276.53 180.76 C330.4 116.92, 384.59 56.49, 432.01 1.89 M276.53 180.76 C325.63 122.33, 374.63 64.98, 432.01 1.89 M281.52 181.12 C315.52 141.46, 349.95 101.54, 437 2.25 M281.52 181.12 C335.49 121.23, 387 62.11, 437 2.25 M287.16 180.72 C336.76 121.04, 390.95 61.4, 442.64 1.86 M287.16 180.72 C336.13 126.15, 383.94 71.15, 442.64 1.86 M292.15 181.08 C344.52 123.17, 396.51 62.88, 447.63 2.22 M292.15 181.08 C328.51 139.77, 365.45 98.07, 447.63 2.22 M297.79 180.69 C329.46 144.72, 362.71 105.83, 453.27 1.82 M297.79 180.69 C335.75 135.88, 374.06 92.37, 453.27 1.82 M302.78 181.05 C351.69 125.85, 401.42 67.05, 458.26 2.18 M302.78 181.05 C345.96 133.24, 388.04 84.74, 458.26 2.18 M308.42 180.65 C365.95 117.33, 419.62 56.48, 463.9 1.79 M308.42 180.65 C360.03 119.88, 412.96 59.27, 463.9 1.79 M313.41 181.01 C351.01 135.39, 389.45 92.05, 468.89 2.15 M313.41 181.01 C352.73 135.65, 393.2 91.47, 468.89 2.15 M319.05 180.62 C366.54 127.34, 412.37 73.22, 474.53 1.75 M319.05 180.62 C359.06 136.19, 399.21 90.26, 474.53 1.75 M324.04 180.98 C369.65 130.94, 413.27 82.24, 479.52 2.11 M324.04 180.98 C376.81 119.49, 430.06 56.51, 479.52 2.11 M329.68 180.58 C390.76 111.47, 447.87 42.39, 485.17 1.72 M329.68 180.58 C381.32 123.9, 432.44 64.87, 485.17 1.72 M334.67 180.94 C375.83 131.09, 419.26 82.95, 490.15 2.08 M334.67 180.94 C379.92 126.16, 426.55 72.29, 490.15 2.08 M340.31 180.55 C391.01 125.25, 438.51 70.83, 495.8 1.68 M340.31 180.55 C394.5 117.88, 447.55 54.89, 495.8 1.68 M345.3 180.91 C401.76 117.1, 456.97 56.33, 500.78 2.04 M345.3 180.91 C377.91 142.47, 412.33 103.63, 500.78 2.04 M350.94 180.52 C408.91 109.33, 471.52 41.23, 505.77 2.4 M350.94 180.52 C408.27 112.78, 468.36 43.77, 505.77 2.4 M355.93 180.88 C407.34 122.35, 459.59 61.36, 511.41 2.01 M355.93 180.88 C412.64 115.11, 469.69 51.56, 511.41 2.01 M361.57 180.48 C405.86 129.26, 447.22 78.77, 516.4 2.37 M361.57 180.48 C417.79 117.13, 473.12 52.88, 516.4 2.37 M366.56 180.84 C413.82 126.87, 460.82 71.25, 522.04 1.98 M366.56 180.84 C425.97 112.43, 484.77 46.31, 522.04 1.98 M372.2 180.45 C415.01 131.31, 456.17 84.2, 527.03 2.34 M372.2 180.45 C414.59 132.94, 456.87 83.62, 527.03 2.34 M377.19 180.81 C419.9 133.73, 458.91 87.86, 532.67 1.94 M377.19 180.81 C417.83 132.88, 457.8 85.35, 532.67 1.94 M382.17 181.17 C416.16 145.91, 446.36 111.06, 537.66 2.3 M382.17 181.17 C442.79 112.75, 502.91 42.62, 537.66 2.3 M387.82 180.77 C429.15 133.27, 471.74 83.55, 543.3 1.91 M387.82 180.77 C449.99 110.97, 510.21 41.02, 543.3 1.91 M392.8 181.13 C439.56 127.36, 487.17 70.35, 548.29 2.27 M392.8 181.13 C425.83 141.31, 460.18 101.32, 548.29 2.27 M398.45 180.74 C439 129.95, 481.34 83.9, 553.93 1.87 M398.45 180.74 C444.04 128.39, 489.36 76.16, 553.93 1.87 M403.43 181.1 C438.58 144.07, 470.86 105.07, 558.92 2.23 M403.43 181.1 C459.62 114.73, 517.08 48.85, 558.92 2.23 M409.08 180.7 C457.39 125.56, 505.12 68.23, 564.56 1.84 M409.08 180.7 C449.6 135.63, 490.46 88.04, 564.56 1.84 M414.06 181.06 C461.89 126.32, 511.84 71.61, 569.55 2.2 M414.06 181.06 C459.13 128.92, 503.66 78.11, 569.55 2.2 M419.71 180.67 C467.07 127.39, 515.63 73.93, 575.19 1.8 M419.71 180.67 C478.75 113.7, 535.63 47.18, 575.19 1.8 M424.69 181.03 C483.83 109.83, 546.05 40.24, 580.18 2.16 M424.69 181.03 C469.8 125.98, 517.58 72.5, 580.18 2.16 M430.34 180.63 C471.7 134.14, 511.07 86.16, 585.82 1.77 M430.34 180.63 C466.65 137.32, 505.02 92.98, 585.82 1.77 M435.32 180.99 C470.5 137.68, 507.16 96.42, 590.81 2.13 M435.32 180.99 C497.44 109.72, 558.99 37.78, 590.81 2.13 M440.97 180.6 C483.13 134.75, 526.06 87.06, 596.45 1.73 M440.97 180.6 C484.78 129.3, 528.28 78.54, 596.45 1.73 M445.95 180.96 C508.94 110.56, 566.7 41.24, 601.44 2.09 M445.95 180.96 C483.73 140.5, 517.78 98.59, 601.44 2.09 M451.6 180.57 C497.06 126.66, 545.97 76.2, 607.08 1.7 M451.6 180.57 C490.57 136.93, 528.25 94.04, 607.08 1.7 M456.58 180.93 C520.54 107.59, 581.01 37.56, 612.07 2.06 M456.58 180.93 C506.23 124.82, 555.18 68.37, 612.07 2.06 M462.23 180.53 C492.49 145.07, 526.4 106.71, 617.06 2.42 M462.23 180.53 C502.73 134.23, 543.21 88.66, 617.06 2.42 M467.21 180.89 C528.15 112.44, 587.05 43.23, 622.7 2.02 M467.21 180.89 C504.19 139.02, 541.24 96.64, 622.7 2.02 M472.86 180.5 C528.85 117.03, 580.68 55.03, 627.69 2.38 M472.86 180.5 C504.72 141.36, 539.44 103.25, 627.69 2.38 M477.84 180.86 C519.55 135.01, 561.36 86.14, 632.67 2.74 M477.84 180.86 C518.09 135.56, 558.17 91.1, 632.67 2.74 M483.49 180.46 C536.1 121.87, 585.89 63.42, 637.01 3.86 M483.49 180.46 C542.87 114.22, 600.9 46.15, 637.01 3.86 M488.47 180.82 C537.94 122.83, 590.72 64.65, 641.99 4.22 M488.47 180.82 C531.19 133.58, 573.17 84.88, 641.99 4.22 M493.46 181.18 C537.42 130, 579.95 82.85, 645.01 6.84 M493.46 181.18 C550.51 118.53, 605.51 55.03, 645.01 6.84 M499.1 180.79 C535.32 136.85, 573.43 92.06, 649.34 7.96 M499.1 180.79 C541.82 130.82, 584.27 82.58, 649.34 7.96 M504.09 181.15 C561.03 115.3, 618.82 49.57, 651.7 11.34 M504.09 181.15 C557.71 119.35, 612.08 56.11, 651.7 11.34 M509.73 180.75 C555.05 131.06, 597.47 79.73, 654.72 13.96 M509.73 180.75 C556.78 127.04, 605.65 71.59, 654.72 13.96 M514.72 181.11 C561.52 126.17, 606.03 74.93, 655.77 18.85 M514.72 181.11 C564.36 125.57, 612.86 69.76, 655.77 18.85 M520.36 180.72 C563.03 130.69, 608.37 81.71, 657.48 22.98 M520.36 180.72 C565.2 128.26, 609.48 76.09, 657.48 22.98 M525.35 181.08 C561.82 138.77, 599.62 97.47, 659.19 27.12 M525.35 181.08 C553.82 148.73, 581.89 115.84, 659.19 27.12 M530.99 180.68 C574.58 129.83, 617.38 78.98, 659.58 32.76 M530.99 180.68 C560.91 142.57, 594.42 106.11, 659.58 32.76 M535.98 181.04 C571.41 142.46, 604.54 104.45, 659.32 39.16 M535.98 181.04 C568.6 144.93, 600.49 106.89, 659.32 39.16 M541.62 180.65 C586.56 130.11, 629.26 77.09, 659.06 45.56 M541.62 180.65 C583.53 134.09, 624.37 86.73, 659.06 45.56 M546.61 181.01 C576.44 148.58, 600.77 119.43, 659.45 51.2 M546.61 181.01 C585.85 137.01, 624.7 91.47, 659.45 51.2 M552.25 180.61 C577.63 152.25, 603.56 120.87, 659.19 57.6 M552.25 180.61 C586.57 141.6, 621.7 102.27, 659.19 57.6 M557.24 180.98 C578.5 155.49, 600.95 127.09, 659.59 63.24 M557.24 180.98 C584.57 147.64, 612.8 117.1, 659.59 63.24 M562.89 180.58 C592.92 144.56, 623.6 111.58, 659.33 69.64 M562.89 180.58 C595.76 140.96, 632.08 100.83, 659.33 69.64 M567.87 180.94 C596.51 148.18, 623.94 116.61, 659.72 75.28 M567.87 180.94 C589.87 154.79, 611.43 130.24, 659.72 75.28 M573.52 180.55 C604.59 148.61, 632.86 112.88, 659.46 81.68 M573.52 180.55 C598.32 152.29, 623.71 123.14, 659.46 81.68 M578.5 180.91 C599.81 155.73, 622.87 129.87, 659.2 88.08 M578.5 180.91 C607.53 145.61, 638.18 109.85, 659.2 88.08 M584.15 180.51 C604.75 155.73, 628.41 129.07, 659.59 93.72 M584.15 180.51 C601.37 160.13, 618.41 138.6, 659.59 93.72 M589.13 180.87 C617.94 146.87, 644.85 116.12, 659.33 100.12 M589.13 180.87 C604.32 162.44, 620.24 145.03, 659.33 100.12 M594.78 180.48 C614.32 158.32, 636.06 131.44, 659.73 105.76 M594.78 180.48 C618.44 153.56, 641.18 128.4, 659.73 105.76 M599.76 180.84 C613.23 162.75, 629.02 149.93, 659.46 112.16 M599.76 180.84 C612.51 163.44, 626.92 148.44, 659.46 112.16 M605.41 180.44 C622.47 160.28, 642.35 140.96, 659.86 117.8 M605.41 180.44 C621.05 161.97, 637.65 142.89, 659.86 117.8 M610.39 180.8 C621.65 169.06, 632.58 156.66, 659.6 124.2 M610.39 180.8 C624.28 166.07, 637.19 149.97, 659.6 124.2 M615.38 181.16 C625.38 169.56, 633.56 157.52, 659.99 129.84 M615.38 181.16 C630.61 162.91, 647.05 146.15, 659.99 129.84 M621.02 180.77 C631.46 165.79, 644.64 154.14, 659.73 136.24 M621.02 180.77 C635.18 165.08, 649.29 148.96, 659.73 136.24 M626.01 181.13 C634.45 168.28, 645.39 158.5, 659.47 142.64 M626.01 181.13 C636.86 169.37, 646.35 159, 659.47 142.64 M632.31 179.98 C638.29 171.37, 647.11 165.25, 658.55 149.79 M632.31 179.98 C638.42 172.33, 644.55 165.61, 658.55 149.79 M639.26 178.07 C645.14 172.21, 649.04 167.54, 657.63 156.94 M639.26 178.07 C646.39 171.23, 652.47 163.06, 657.63 156.94" stroke="#ffc9c9" stroke-width="0.5" fill="none"></path><path d="M32 0 M32 0 C253.91 -0.58, 474.92 -1.82, 624.86 0 M32 0 C198.53 0.84, 365.39 1.12, 624.86 0 M624.86 0 C646.12 -1.67, 658.1 10.18, 656.86 32 M624.86 0 C646.4 1.6, 658.05 9.89, 656.86 32 M656.86 32 C656.91 68.72, 658.36 106.24, 656.86 148.21 M656.86 32 C656.27 58.94, 657.83 88.49, 656.86 148.21 M656.86 148.21 C655.16 171.1, 644.74 180.32, 624.86 180.21 M656.86 148.21 C654.94 168.31, 646.44 180.37, 624.86 180.21 M624.86 180.21 C506.21 182.1, 386.84 181.34, 32 180.21 M624.86 180.21 C416.34 179.08, 208.79 178.96, 32 180.21 M32 180.21 C10.19 181.53, -0.28 170.35, 0 148.21 M32 180.21 C11.38 178.54, -1.5 171.64, 0 148.21 M0 148.21 C1.49 110.37, -1.21 71.44, 0 32 M0 148.21 C0.69 120.23, 0.54 93.66, 0 32 M0 32 C0.29 8.71, 11.38 -0.67, 32 0 M0 32 C-2.16 12.28, 9.02 -1.06, 32 0" stroke="#e03131" stroke-width="1" fill="none"></path></g><g transform="translate(262.67206233767865 297.85473225272034) rotate(0 115.77994537353516 17.5)"><text x="0" y="0" font-family="Virgil, Segoe UI Emoji" font-size="28px" fill="#000000" text-anchor="start" style="white-space: pre;" direction="ltr" dominant-baseline="text-before-edge">&lt;Conversation /&gt;</text></g><g stroke-linecap="round" transform="translate(50.02109381851426 444.35470744673574) rotate(0 328.4309138926997 39.709576132371126)"><path d="M5.28 4.59 C5.28 4.59, 5.28 4.59, 5.28 4.59 M5.28 4.59 C5.28 4.59, 5.28 4.59, 5.28 4.59 M3.06 13.26 C6.36 9.87, 8.83 7.15, 12.24 2.69 M3.06 13.26 C5.66 9.46, 9.57 6.14, 12.24 2.69 M1.48 21.16 C7.06 18.49, 9.6 12.29, 19.85 0.03 M1.48 21.16 C6.87 14.05, 13.41 6.18, 19.85 0.03 M1.22 27.56 C10.8 17.36, 21.04 7.28, 24.84 0.39 M1.22 27.56 C8.38 20.22, 14.09 14.25, 24.84 0.39 M1.61 33.2 C13.64 19.89, 25.49 6.13, 30.48 0 M1.61 33.2 C8.61 26.45, 13.48 19.02, 30.48 0 M1.35 39.6 C11.1 27.51, 21.06 15.38, 35.47 0.36 M1.35 39.6 C8.99 32.34, 15.07 24.64, 35.47 0.36 M1.75 45.24 C14.62 32.88, 25.18 18.55, 41.11 -0.04 M1.75 45.24 C16.73 29.35, 30.15 13.28, 41.11 -0.04 M1.49 51.64 C11.82 38.26, 24.68 26.71, 46.1 0.32 M1.49 51.64 C11.03 39.78, 22.03 28.26, 46.1 0.32 M1.23 58.04 C18.63 39.38, 34.01 22.26, 51.74 -0.07 M1.23 58.04 C18.54 38.59, 36.77 17.71, 51.74 -0.07 M2.93 62.17 C18.19 47.79, 31.62 30.48, 56.73 0.29 M2.93 62.17 C22.59 40.34, 42.09 18.67, 56.73 0.29 M2.01 69.33 C18.8 46.63, 40.89 27.12, 62.37 -0.11 M2.01 69.33 C16.55 51.18, 33.62 32.89, 62.37 -0.11 M5.03 71.95 C24.86 49.54, 45.53 23.96, 67.36 0.25 M5.03 71.95 C28.16 44.66, 51.65 17.51, 67.36 0.25 M7.4 75.33 C30.34 51.23, 52.51 23.75, 73 -0.14 M7.4 75.33 C23.97 55.86, 40.39 37.3, 73 -0.14 M9.76 78.71 C26.28 60.13, 42.71 41.94, 77.99 0.22 M9.76 78.71 C24.4 61.58, 40.09 45.25, 77.99 0.22 M14.09 79.82 C36.67 51.04, 63.35 24.22, 83.63 -0.18 M14.09 79.82 C37.47 53.14, 58.69 27.36, 83.63 -0.18 M17.76 81.69 C45.18 53.83, 70.2 23.72, 88.62 0.18 M17.76 81.69 C46.66 50.03, 74.23 17.4, 88.62 0.18 M23.41 81.3 C50.8 49.85, 76.9 19.54, 94.26 -0.21 M23.41 81.3 C47.22 51.99, 72.9 24.49, 94.26 -0.21 M28.39 81.66 C47.25 58.85, 66.45 39.34, 99.25 0.15 M28.39 81.66 C56.7 51.36, 84.25 19.48, 99.25 0.15 M34.04 81.26 C60.55 47.41, 89.12 19, 104.89 -0.24 M34.04 81.26 C50.38 61.85, 68.07 42.16, 104.89 -0.24 M39.02 81.62 C61.32 54.65, 81.26 32.49, 109.88 0.12 M39.02 81.62 C57.1 62.17, 73.27 42.25, 109.88 0.12 M44.67 81.23 C68.76 52.89, 92.06 24.46, 115.52 -0.28 M44.67 81.23 C59.93 63.47, 75.3 46.06, 115.52 -0.28 M49.65 81.59 C76.47 51.58, 105.59 18.52, 120.51 0.08 M49.65 81.59 C75.54 51.48, 99.88 22.75, 120.51 0.08 M55.3 81.2 C82.3 53.67, 104.14 23.73, 125.5 0.44 M55.3 81.2 C79.73 54.97, 103.35 27.97, 125.5 0.44 M60.28 81.56 C76.38 63, 94.75 43.13, 131.14 0.05 M60.28 81.56 C84.26 55.52, 107.08 28.22, 131.14 0.05 M65.93 81.16 C93.44 50.18, 120.59 16.47, 136.13 0.41 M65.93 81.16 C88.82 53.61, 114.18 28.29, 136.13 0.41 M70.92 81.52 C93.62 55.07, 115.5 31.1, 141.77 0.01 M70.92 81.52 C88.97 58.79, 108.43 37.06, 141.77 0.01 M75.9 81.88 C101.12 54.04, 123.8 25.27, 146.76 0.37 M75.9 81.88 C89.68 64.59, 104.54 47.22, 146.76 0.37 M81.55 81.49 C106.47 54.12, 131.54 23.68, 152.4 -0.02 M81.55 81.49 C103.48 57.43, 124.18 33.13, 152.4 -0.02 M86.53 81.85 C107.41 55.13, 129.81 30.62, 157.39 0.34 M86.53 81.85 C102.99 64.58, 118.76 46.28, 157.39 0.34 M92.18 81.45 C119.23 50.25, 142.79 20.72, 163.03 -0.06 M92.18 81.45 C113.66 57.64, 132.97 34.44, 163.03 -0.06 M97.16 81.81 C126.61 47.9, 152.52 15.93, 168.02 0.3 M97.16 81.81 C119.27 56.51, 140.99 30.75, 168.02 0.3 M102.81 81.42 C120.59 61.03, 139.34 40.96, 173.66 -0.09 M102.81 81.42 C121.5 59.55, 142.37 36.43, 173.66 -0.09 M107.79 81.78 C126.29 60.69, 139.4 42.71, 178.65 0.27 M107.79 81.78 C125.06 60.05, 144.67 40.87, 178.65 0.27 M113.44 81.38 C128.35 64.99, 142.57 46.93, 184.29 -0.13 M113.44 81.38 C131.38 59.86, 150.84 38.94, 184.29 -0.13 M118.42 81.74 C139.18 57.02, 160.68 33.68, 189.28 0.23 M118.42 81.74 C140.35 54.44, 162.64 29.47, 189.28 0.23 M124.07 81.35 C144.72 57.54, 164.03 37.44, 194.92 -0.16 M124.07 81.35 C138.73 65.29, 152.51 49.6, 194.92 -0.16 M129.05 81.71 C144.19 64.55, 156.97 48.2, 199.91 0.2 M129.05 81.71 C145.13 61.34, 162.92 42.37, 199.91 0.2 M134.7 81.31 C149.77 63.95, 164.79 44.93, 205.55 -0.19 M134.7 81.31 C151.53 61.64, 168.74 42.62, 205.55 -0.19 M139.68 81.67 C164.65 50.34, 194.87 19.11, 210.54 0.17 M139.68 81.67 C168.26 50.5, 194.54 18.23, 210.54 0.17 M145.33 81.28 C163.95 57.48, 182.63 36.3, 216.18 -0.23 M145.33 81.28 C165.92 59.03, 185.5 34.65, 216.18 -0.23 M150.31 81.64 C166.29 63.1, 181.42 45.64, 221.17 0.13 M150.31 81.64 C167.36 61.04, 184.1 42.25, 221.17 0.13 M155.96 81.24 C181.51 54.92, 204.53 26.01, 226.15 0.49 M155.96 81.24 C184.32 50.95, 209.47 19.49, 226.15 0.49 M160.94 81.6 C184.31 55.74, 207.07 24.71, 231.8 0.1 M160.94 81.6 C182.55 57.22, 203.18 30.88, 231.8 0.1 M166.59 81.21 C184.02 59.45, 203.33 37.46, 236.78 0.46 M166.59 81.21 C191.59 50.92, 218.97 20.22, 236.78 0.46 M171.57 81.57 C190.83 57.62, 213.18 34.48, 242.43 0.06 M171.57 81.57 C198.11 50.39, 226.51 18.53, 242.43 0.06 M176.56 81.93 C200.85 56.89, 223.34 31.98, 247.41 0.42 M176.56 81.93 C194.39 62.33, 212.31 39.85, 247.41 0.42 M182.2 81.54 C198.44 64.16, 213.04 45.53, 253.06 0.03 M182.2 81.54 C203.46 56.28, 227.59 29.66, 253.06 0.03 M187.19 81.9 C203.79 62.56, 224.58 40.61, 258.04 0.39 M187.19 81.9 C214.75 50.82, 241.59 19.42, 258.04 0.39 M192.83 81.5 C213.1 57.95, 230.17 34.88, 263.69 -0.01 M192.83 81.5 C208.3 63.04, 226.06 44.48, 263.69 -0.01 M197.82 81.86 C221.11 52.08, 248.39 24.63, 268.67 0.35 M197.82 81.86 C217.46 58.66, 238.3 34.74, 268.67 0.35 M203.46 81.47 C231.84 47.7, 257.87 17.24, 274.32 -0.04 M203.46 81.47 C225.08 55.77, 247.9 29.81, 274.32 -0.04 M208.45 81.83 C234.21 52.05, 258.5 20.56, 279.3 0.32 M208.45 81.83 C226.76 60.67, 246.39 39.07, 279.3 0.32 M214.09 81.43 C233.24 57.33, 253.77 38.13, 284.95 -0.08 M214.09 81.43 C228.97 63.47, 243 46.93, 284.95 -0.08 M219.08 81.79 C239.4 55.97, 259.69 34.63, 289.93 0.28 M219.08 81.79 C246.71 51.72, 272.02 21.81, 289.93 0.28 M224.72 81.4 C242.01 63.66, 252.97 46.3, 295.58 -0.11 M224.72 81.4 C241.3 61.52, 257.55 42.22, 295.58 -0.11 M229.71 81.76 C247.36 61.43, 263.13 40.27, 300.56 0.25 M229.71 81.76 C246.85 64.13, 261.04 46.22, 300.56 0.25 M235.35 81.36 C254.79 56.16, 277.26 34.76, 306.21 -0.15 M235.35 81.36 C262.66 50.29, 288.29 19.33, 306.21 -0.15 M240.34 81.72 C259.38 63.81, 276.36 44.14, 311.19 0.21 M240.34 81.72 C255.03 62.97, 270.84 44.9, 311.19 0.21 M245.98 81.33 C272.18 50.4, 295.1 22.18, 316.84 -0.18 M245.98 81.33 C266.93 58.88, 286.6 34.91, 316.84 -0.18 M250.97 81.69 C275.86 52.24, 298.05 25.79, 321.82 0.18 M250.97 81.69 C273.07 55.36, 297.08 30.91, 321.82 0.18 M256.61 81.29 C277.45 59.92, 294.33 36.67, 326.81 0.54 M256.61 81.29 C272.68 61.25, 290.52 39.35, 326.81 0.54 M261.6 81.65 C284.14 52.57, 309.42 25.17, 332.45 0.15 M261.6 81.65 C276.5 64.68, 293.42 45.68, 332.45 0.15 M267.24 81.26 C285.59 58.58, 304.3 36.73, 337.44 0.51 M267.24 81.26 C286.77 58.92, 306.16 36.36, 337.44 0.51 M272.23 81.62 C287.98 61.48, 306.25 43.92, 343.09 0.11 M272.23 81.62 C288.19 60.6, 306.02 41.81, 343.09 0.11 M277.22 81.98 C302.56 51.7, 331.66 24.32, 348.07 0.47 M277.22 81.98 C292.09 64.94, 306.89 47.41, 348.07 0.47 M282.86 81.59 C296.75 64.95, 313.95 48.07, 353.72 0.08 M282.86 81.59 C298.53 64.45, 312.74 45.96, 353.72 0.08 M287.85 81.95 C312.55 55.24, 339.71 23.97, 358.7 0.44 M287.85 81.95 C312.62 54.96, 336.75 26.11, 358.7 0.44 M293.49 81.55 C310.45 60.38, 330.32 42.54, 364.35 0.04 M293.49 81.55 C318.58 52.69, 345.02 23.17, 364.35 0.04 M298.48 81.91 C313.05 65.62, 328.57 47.11, 369.33 0.4 M298.48 81.91 C315.53 61.56, 334.45 41.22, 369.33 0.4 M304.12 81.52 C321.99 61.61, 339.91 40.07, 374.98 0.01 M304.12 81.52 C322.88 60.71, 341.86 38.04, 374.98 0.01 M309.11 81.88 C330.79 55.95, 352.74 28.64, 379.96 0.37 M309.11 81.88 C336.76 49.13, 365.66 17.96, 379.96 0.37 M314.75 81.48 C332.34 62.78, 347.3 40.85, 385.61 -0.03 M314.75 81.48 C335.74 59.49, 355.23 35.41, 385.61 -0.03 M319.74 81.84 C337.97 63.45, 352.35 44.13, 390.59 0.33 M319.74 81.84 C337.75 61.12, 358.35 37.77, 390.59 0.33 M325.38 81.45 C343.19 59.56, 361.77 37.71, 396.24 -0.06 M325.38 81.45 C347.85 56.61, 369.75 31.12, 396.24 -0.06 M330.37 81.81 C352.69 59.36, 371.02 37.19, 401.22 0.3 M330.37 81.81 C347.53 61.34, 364.36 42.89, 401.22 0.3 M336.01 81.41 C354.84 61.66, 373 36.94, 406.87 -0.1 M336.01 81.41 C352.26 61.66, 370.93 40.8, 406.87 -0.1 M341 81.77 C367.57 50.45, 395.42 18.86, 411.85 0.26 M341 81.77 C367.12 52.3, 392.9 22.53, 411.85 0.26 M346.64 81.38 C366.7 57.46, 389.77 34.63, 417.5 -0.13 M346.64 81.38 C370.32 53.62, 393.5 26.68, 417.5 -0.13 M351.63 81.74 C372.04 61.58, 387.79 37.83, 422.48 0.23 M351.63 81.74 C374.47 55.54, 397.35 29.16, 422.48 0.23 M357.27 81.34 C377.49 57.61, 397.81 36.79, 427.47 0.59 M357.27 81.34 C383.89 51.74, 410.69 19.96, 427.47 0.59 M362.26 81.7 C388.58 50.18, 416.97 17.45, 433.11 0.2 M362.26 81.7 C383.1 57.85, 404.71 33.57, 433.11 0.2 M367.9 81.31 C383.98 64.19, 397.46 47.29, 438.1 0.56 M367.9 81.31 C392.87 52.13, 417.23 23.3, 438.1 0.56 M372.89 81.67 C390.18 62.15, 408.35 38.28, 443.74 0.16 M372.89 81.67 C396.73 55.55, 419.64 28.02, 443.74 0.16 M377.88 82.03 C393.81 63.77, 407.35 46.21, 448.73 0.52 M377.88 82.03 C393.53 65.65, 408.25 46.6, 448.73 0.52 M383.52 81.64 C407.52 57.06, 428.78 32.36, 454.37 0.13 M383.52 81.64 C406.18 56.56, 427.35 32.32, 454.37 0.13 M388.51 82 C405.41 65.23, 422.63 43.51, 459.36 0.49 M388.51 82 C407.15 59.99, 426.39 38.18, 459.36 0.49 M394.15 81.6 C409.49 62.63, 423.49 48.35, 465 0.09 M394.15 81.6 C422.41 48.05, 451.03 16.9, 465 0.09 M399.14 81.96 C422.01 55.32, 447.57 25.72, 469.99 0.45 M399.14 81.96 C426.09 52.51, 452.29 21.73, 469.99 0.45 M404.78 81.57 C431.74 52.59, 458.09 22.96, 475.63 0.06 M404.78 81.57 C421.11 62.49, 437.77 42.02, 475.63 0.06 M409.77 81.93 C429.39 57.43, 448.54 35.86, 480.62 0.42 M409.77 81.93 C437.14 51.87, 463.3 20.27, 480.62 0.42 M415.41 81.53 C442.5 48.82, 470.94 17.54, 486.26 0.02 M415.41 81.53 C440.3 53.84, 463.27 27.89, 486.26 0.02 M420.4 81.89 C440.8 58.39, 463.66 34.96, 491.25 0.38 M420.4 81.89 C441.96 57.25, 462.44 32.83, 491.25 0.38 M426.04 81.5 C447.68 58.35, 467.35 33.31, 496.89 -0.01 M426.04 81.5 C441.49 63.14, 457.56 44.95, 496.89 -0.01 M431.03 81.86 C449.93 57.75, 471.12 36.46, 501.88 0.35 M431.03 81.86 C451.48 57.51, 472.69 33.63, 501.88 0.35 M436.67 81.46 C454.98 61.73, 473.46 39.89, 507.52 -0.05 M436.67 81.46 C463.39 50.34, 488.15 21, 507.52 -0.05 M441.66 81.82 C460.09 62.23, 474.73 44.1, 512.51 0.31 M441.66 81.82 C462.8 57.23, 483.62 32.72, 512.51 0.31 M447.3 81.43 C462.42 61.3, 480.45 40.36, 518.15 -0.08 M447.3 81.43 C464.59 62.7, 481.29 42.32, 518.15 -0.08 M452.29 81.79 C470.45 58.63, 490.14 36.81, 523.14 0.28 M452.29 81.79 C469.01 63.55, 485.34 44.52, 523.14 0.28 M457.93 81.39 C485.66 50.87, 511.97 20.47, 528.13 0.64 M457.93 81.39 C485.51 48.18, 513.26 16.3, 528.13 0.64 M462.92 81.75 C483.68 54.39, 506.29 29.62, 533.77 0.25 M462.92 81.75 C486.63 53.03, 510.29 26.05, 533.77 0.25 M468.56 81.36 C483.93 61.45, 502.46 42.37, 538.76 0.61 M468.56 81.36 C487.67 59.33, 506.93 37.43, 538.76 0.61 M473.55 81.72 C491.4 60.16, 510.88 40.16, 544.4 0.21 M473.55 81.72 C494.02 59.35, 512.82 36.16, 544.4 0.21 M478.53 82.08 C502.3 54.3, 523.06 29.29, 549.39 0.57 M478.53 82.08 C503.94 52.23, 530.19 22.81, 549.39 0.57 M484.18 81.68 C510.3 50.11, 541.03 16.12, 555.03 0.18 M484.18 81.68 C499.5 63.88, 514.31 46.3, 555.03 0.18 M489.16 82.04 C511.61 55.39, 534.97 29.53, 560.02 0.54 M489.16 82.04 C504.24 63.21, 518.76 47.01, 560.02 0.54 M494.81 81.65 C520.43 50.74, 548.47 21.84, 565.66 0.14 M494.81 81.65 C518.29 53.14, 543.59 24.85, 565.66 0.14 M499.79 82.01 C527.62 50.58, 549.89 21.53, 570.65 0.5 M499.79 82.01 C518.57 60.1, 537.18 38.03, 570.65 0.5 M505.44 81.62 C527.68 58.66, 547.12 34.3, 576.29 0.11 M505.44 81.62 C533.06 50.5, 561.19 17.47, 576.29 0.11 M510.42 81.98 C527.98 58.33, 548.02 40.09, 581.28 0.47 M510.42 81.98 C537.23 51.22, 565.3 19.08, 581.28 0.47 M516.07 81.58 C541.94 50.8, 566.87 21.89, 586.92 0.07 M516.07 81.58 C533.03 62.44, 548.9 42.41, 586.92 0.07 M521.05 81.94 C542.44 55.18, 566.86 28.76, 591.91 0.43 M521.05 81.94 C545.61 55.34, 569.51 27.79, 591.91 0.43 M526.7 81.55 C541.71 66.74, 555.7 47.72, 597.55 0.04 M526.7 81.55 C551.9 52.27, 578.09 23.67, 597.55 0.04 M531.68 81.91 C558.53 52.32, 582.25 21.61, 602.54 0.4 M531.68 81.91 C555.44 54.14, 580.52 25.79, 602.54 0.4 M537.33 81.51 C553.68 61.01, 568.23 44.05, 608.18 0 M537.33 81.51 C562.53 50.77, 589.15 19.68, 608.18 0 M542.31 81.87 C559.37 63.63, 574.52 46.69, 613.17 0.36 M542.31 81.87 C561.35 60.33, 581.29 37.94, 613.17 0.36 M547.96 81.48 C567.49 60.45, 583.53 39.47, 618.81 -0.03 M547.96 81.48 C566.97 58.07, 586.57 35.49, 618.81 -0.03 M552.94 81.84 C571.07 57.54, 590.38 36.93, 623.8 0.33 M552.94 81.84 C575.76 56.19, 596.36 32.03, 623.8 0.33 M558.59 81.44 C573.4 63.91, 589.14 49.87, 628.79 0.69 M558.59 81.44 C573.52 62.22, 589.69 43.68, 628.79 0.69 M563.57 81.8 C590.62 54.32, 613.82 25.33, 634.43 0.29 M563.57 81.8 C579.12 63.79, 595.6 45.92, 634.43 0.29 M569.22 81.41 C590.61 55.28, 612.01 34.6, 639.42 0.65 M569.22 81.41 C594.06 52.79, 618.34 23.77, 639.42 0.65 M574.2 81.77 C590.27 64.11, 608.67 46.35, 643.75 1.77 M574.2 81.77 C598.27 54.44, 620.85 28.23, 643.75 1.77 M579.19 82.13 C594.47 63.77, 612.08 47.09, 647.42 3.64 M579.19 82.13 C602.09 55.13, 625.35 28.43, 647.42 3.64 M584.83 81.73 C599.95 64.53, 620.05 44.08, 651.75 4.75 M584.83 81.73 C609.02 53.59, 634.34 23.97, 651.75 4.75 M589.82 82.09 C612.1 55.12, 638.87 24.3, 654.12 8.13 M589.82 82.09 C606.54 64.97, 621.04 44.59, 654.12 8.13 M595.46 81.7 C618.44 54.7, 640.92 25.74, 656.48 11.51 M595.46 81.7 C616.57 56.9, 639.21 32.01, 656.48 11.51 M600.45 82.06 C612.73 67.8, 625.07 56.01, 656.87 17.16 M600.45 82.06 C617.43 63.39, 633.23 44.67, 656.87 17.16 M606.09 81.67 C623.1 61.67, 641.53 41.56, 658.58 21.29 M606.09 81.67 C626.22 60.12, 644.69 36.62, 658.58 21.29 M611.08 82.03 C622.5 69.26, 636.14 54.63, 658.32 27.69 M611.08 82.03 C622.97 69.19, 636.51 54.28, 658.32 27.69 M616.72 81.63 C627.69 69.71, 636.77 58.68, 658.71 33.33 M616.72 81.63 C631.48 64.27, 645.01 47.75, 658.71 33.33 M621.71 81.99 C634.1 65.11, 650.67 51.3, 658.45 39.73 M621.71 81.99 C633.71 68.28, 645.16 55.65, 658.45 39.73 M627.35 81.6 C633.64 74.36, 639.1 66.34, 658.19 46.13 M627.35 81.6 C636.15 71.12, 646.26 61.84, 658.19 46.13 M632.34 81.96 C639.4 71.7, 648.01 65.74, 658.58 51.77 M632.34 81.96 C640.32 72.34, 650.6 61.59, 658.58 51.77 M638.64 80.81 C643.14 74.53, 650.56 69.04, 658.32 58.17 M638.64 80.81 C644.15 75.19, 650.29 68.39, 658.32 58.17 M644.94 79.66 C651.31 73.89, 655.73 67.91, 657.4 65.32 M644.94 79.66 C648.85 75.46, 650.39 72.36, 657.4 65.32" stroke="#ffc9c9" stroke-width="0.5" fill="none"></path><path d="M19.85 0 M19.85 0 C253.44 -0.28, 487.44 -0.85, 637.01 0 M19.85 0 C203.63 0.23, 386.8 -0.07, 637.01 0 M637.01 0 C650.6 0.56, 657.55 6.59, 656.86 19.85 M637.01 0 C652.21 -1.02, 655.53 6.74, 656.86 19.85 M656.86 19.85 C654.77 31.24, 658.13 40.29, 656.86 59.56 M656.86 19.85 C656.42 28.72, 657.21 36.2, 656.86 59.56 M656.86 59.56 C656 71.35, 651.21 79.48, 637.01 79.42 M656.86 59.56 C656.77 74.66, 650.38 79.13, 637.01 79.42 M637.01 79.42 C452.11 80.82, 265.96 80.3, 19.85 79.42 M637.01 79.42 C482.27 81.53, 327.47 80.85, 19.85 79.42 M19.85 79.42 C7.64 80.42, 0.04 72.72, 0 59.56 M19.85 79.42 C4.34 81.15, -0.72 71.73, 0 59.56 M0 59.56 C0.23 45.99, 0.13 27.39, 0 19.85 M0 59.56 C1.04 48.65, 0.03 38.77, 0 19.85 M0 19.85 C1.1 5.37, 6.24 -1.68, 19.85 0 M0 19.85 C0.26 6.17, 5.71 -1.06, 19.85 0" stroke="#e03131" stroke-width="1" fill="none"></path></g><g transform="translate(293.640041768831 468.4353425868573) rotate(0 84.81196594238281 17.5)"><text x="0" y="0" font-family="Virgil, Segoe UI Emoji" font-size="28px" fill="#000000" text-anchor="start" style="white-space: pre;" direction="ltr" dominant-baseline="text-before-edge">&lt;Compose /&gt;</text></g><g stroke-linecap="round" transform="translate(518.823464438571 129.40040581062254) rotate(0 70.31172437049423 21.976878291217844)"><path d="M2.92 2.54 C2.92 2.54, 2.92 2.54, 2.92 2.54 M2.92 2.54 C2.92 2.54, 2.92 2.54, 2.92 2.54 M0.7 11.2 C4.91 8.07, 8.68 3.12, 10.54 -0.12 M0.7 11.2 C3.43 8.44, 5.48 6.59, 10.54 -0.12 M0.43 17.6 C4.14 10.83, 12.43 7.6, 13.55 2.51 M0.43 17.6 C5.48 13.31, 8.86 7.97, 13.55 2.51 M0.83 23.25 C8.89 16.6, 12.75 7.53, 19.2 2.11 M0.83 23.25 C4.37 18.03, 7.9 14.9, 19.2 2.11 M1.22 28.89 C10.25 19.68, 17.37 9.98, 24.19 2.47 M1.22 28.89 C7.29 22.64, 12.34 16.03, 24.19 2.47 M0.96 35.29 C7.94 26.11, 15.56 19.73, 29.83 2.08 M0.96 35.29 C11.47 22.46, 21.95 10.47, 29.83 2.08 M2.67 39.42 C13.15 24.76, 26 14.58, 34.82 2.44 M2.67 39.42 C12.94 26.76, 23.98 15.44, 34.82 2.44 M5.69 42.04 C16.25 27.04, 32.42 13.33, 39.8 2.8 M5.69 42.04 C18.74 27.8, 31.32 12.67, 39.8 2.8 M8.05 45.42 C16.4 36.53, 24.94 22.73, 45.45 2.4 M8.05 45.42 C19.7 31.32, 31.66 17.73, 45.45 2.4 M13.69 45.03 C23.99 34.66, 35.04 21.25, 50.43 2.76 M13.69 45.03 C23.23 34.26, 33 23.17, 50.43 2.76 M18.68 45.39 C26.52 36.45, 34.91 26.13, 56.08 2.37 M18.68 45.39 C33.42 29.79, 45.9 14.13, 56.08 2.37 M24.32 44.99 C34.02 33.3, 46.68 19.43, 61.06 2.73 M24.32 44.99 C38.29 28.87, 52.8 13.6, 61.06 2.73 M29.31 45.35 C40.09 31.31, 54.29 19.33, 66.71 2.34 M29.31 45.35 C43.4 30.31, 56.74 13.86, 66.71 2.34 M34.95 44.96 C41.1 38.29, 51.32 28.59, 71.69 2.7 M34.95 44.96 C45.95 30.4, 58.59 16.4, 71.69 2.7 M39.94 45.32 C52.92 29.84, 67.98 11.76, 76.68 3.06 M39.94 45.32 C47.44 35.79, 56.27 27.27, 76.68 3.06 M44.93 45.68 C55.66 37.64, 63.63 24.55, 82.32 2.66 M44.93 45.68 C53.33 34.55, 62.27 25.03, 82.32 2.66 M50.57 45.29 C57.43 37.11, 64.36 27.51, 87.31 3.02 M50.57 45.29 C60.29 32.24, 72.31 20.32, 87.31 3.02 M55.56 45.65 C66.62 31.88, 82.76 15.47, 92.95 2.63 M55.56 45.65 C69.03 30.39, 83.95 14.7, 92.95 2.63 M61.2 45.25 C71 35.7, 78.95 21.76, 97.94 2.99 M61.2 45.25 C71.63 34.07, 80.93 22.3, 97.94 2.99 M66.19 45.61 C79.37 30.14, 94.35 12.67, 103.58 2.59 M66.19 45.61 C74.27 37.05, 82.78 28.91, 103.58 2.59 M71.83 45.22 C79.37 36.01, 91.8 25.76, 108.57 2.95 M71.83 45.22 C80.54 34.74, 89.91 24.53, 108.57 2.95 M76.82 45.58 C91.78 27.97, 105.01 11.84, 114.21 2.56 M76.82 45.58 C90.96 29.71, 104.93 14.26, 114.21 2.56 M82.46 45.18 C93.53 35.57, 100.37 23.64, 119.2 2.92 M82.46 45.18 C90.38 36.71, 97.43 28.03, 119.2 2.92 M87.45 45.54 C93.66 38.15, 103.36 25.63, 124.19 3.28 M87.45 45.54 C96.71 35.96, 104.99 24.11, 124.19 3.28 M92.43 45.9 C103.22 30.99, 118.54 17, 129.83 2.88 M92.43 45.9 C108.17 29.7, 122.29 12.57, 129.83 2.88 M98.08 45.51 C113.09 28.84, 124.69 13.69, 136.13 1.73 M98.08 45.51 C112.55 27.89, 128.47 10.08, 136.13 1.73 M103.06 45.87 C113.21 32.85, 127.92 18.1, 138.49 5.11 M103.06 45.87 C113.95 32.18, 126.9 18.37, 138.49 5.11 M108.71 45.47 C118.76 32.14, 129.29 20.88, 141.51 7.74 M108.71 45.47 C120.24 33.24, 130.39 21, 141.51 7.74 M113.69 45.83 C123.84 37.66, 131 26.72, 141.91 13.38 M113.69 45.83 C124.23 32.41, 134.85 19.97, 141.91 13.38 M119.34 45.44 C126.05 39.19, 129.05 34.72, 141.64 19.78 M119.34 45.44 C126.87 37.72, 133.86 28.15, 141.64 19.78 M124.32 45.8 C128.8 40.76, 131.15 37.68, 141.38 26.18 M124.32 45.8 C127.29 40.83, 132.87 35.95, 141.38 26.18 M130.62 44.65 C134.96 39.81, 139.14 34.23, 141.78 31.82 M130.62 44.65 C133.11 41.37, 137.07 37.54, 141.78 31.82" stroke="#ffc9c9" stroke-width="0.5" fill="none"></path><path d="M10.99 0 M10.99 0 C53.84 -2.97, 94.79 0.13, 129.64 0 M10.99 0 C50.68 -0.47, 91.06 -0.37, 129.64 0 M129.64 0 C137.45 -0.52, 139.15 5.61, 140.62 10.99 M129.64 0 C137.91 1.26, 139.89 5.12, 140.62 10.99 M140.62 10.99 C139.87 19.55, 140.12 22.71, 140.62 32.97 M140.62 10.99 C140.56 18.01, 141.14 24.64, 140.62 32.97 M140.62 32.97 C142.57 38.73, 136.35 42.21, 129.64 43.95 M140.62 32.97 C141.85 42.38, 135.95 44.36, 129.64 43.95 M129.64 43.95 C103.04 46.7, 77.2 46.27, 10.99 43.95 M129.64 43.95 C94.49 43.37, 59.92 43.12, 10.99 43.95 M10.99 43.95 C2.16 42.54, -1.78 40.94, 0 32.97 M10.99 43.95 C1.4 45.46, 2.15 41.54, 0 32.97 M0 32.97 C0.54 25.42, -1.73 16.58, 0 10.99 M0 32.97 C-0.62 24.19, 0.55 15.65, 0 10.99 M0 10.99 C1.62 2.3, 4.29 0.26, 10.99 0 M0 10.99 C-0.77 5.12, 4.92 2.1, 10.99 0" stroke="#e03131" stroke-width="1" fill="none"></path></g><g transform="translate(535.3255373508762 141.26631035501606) rotate(0 57.43995666503906 12.5)"><text x="0" y="0" font-family="Virgil, Segoe UI Emoji" font-size="20px" fill="#000000" text-anchor="start" style="white-space: pre;" direction="ltr" dominant-baseline="text-before-edge">&lt;SignOut /&gt;</text></g></svg>