<svg version="1.1" xmlns="http://www.w3.org/2000/svg" viewBox="0 0 1472.4978400857656 449.01147078734147" width="4417.493520257297" height="1347.0344123620243">
  <!-- svg-source:excalidraw -->
  
  <defs>
    <style class="style-fonts">
      @font-face {
        font-family: "Virgil";
        src: url("https://excalidraw.com/Virgil.woff2");
      }
      @font-face {
        font-family: "Cascadia";
        src: url("https://excalidraw.com/Cascadia.woff2");
      }
      @font-face {
        font-family: "Assistant";
        src: url("https://excalidraw.com/Assistant-Regular.woff2");
      }
    </style>
    
  </defs>
  <rect x="0" y="0" width="1472.4978400857656" height="449.01147078734147" fill="#ffffff"></rect><g stroke-linecap="round" transform="translate(10 150.922357083311) rotate(0 154.03259856872887 98.02687749181351)"><path d="M7.86 8.16 C7.86 8.16, 7.86 8.16, 7.86 8.16 M7.86 8.16 C7.86 8.16, 7.86 8.16, 7.86 8.16 M2.35 20.59 C8.33 14.95, 9.41 10.16, 18.1 2.48 M2.35 20.59 C7.99 12.44, 14.28 6.22, 18.1 2.48 M1.43 27.75 C12.5 16.68, 20.12 5.06, 24.4 1.33 M1.43 27.75 C6.29 20.95, 13.57 13.06, 24.4 1.33 M1.17 34.14 C12.03 21.78, 23.78 5.46, 30.7 0.18 M1.17 34.14 C9.66 24.55, 18.38 15.42, 30.7 0.18 M0.91 40.54 C13.3 28.39, 24.74 14.29, 36.34 -0.21 M0.91 40.54 C12.47 27.07, 24.76 13.65, 36.34 -0.21 M1.31 46.19 C11.37 32.79, 24.68 17.78, 41.33 0.15 M1.31 46.19 C16.91 28.31, 30.21 11.75, 41.33 0.15 M1.04 52.58 C17.99 35.19, 32.14 13.56, 46.97 -0.25 M1.04 52.58 C10.37 40.7, 21.99 29.4, 46.97 -0.25 M1.44 58.23 C21.14 37.61, 38.59 17.71, 51.96 0.11 M1.44 58.23 C14.62 42, 29.13 25.64, 51.96 0.11 M1.18 64.62 C18.03 45.16, 35.67 23.99, 57.6 -0.28 M1.18 64.62 C12.52 51.27, 24.64 35.74, 57.6 -0.28 M0.92 71.02 C18.25 54.33, 30.52 35.83, 62.59 0.08 M0.92 71.02 C11.98 58.15, 24.81 42.88, 62.59 0.08 M1.31 76.67 C26.26 47.08, 51.28 20.47, 67.57 0.44 M1.31 76.67 C24.84 47.19, 49.89 19.7, 67.57 0.44 M1.05 83.06 C18.51 65.44, 32.1 47.44, 73.22 0.04 M1.05 83.06 C26.1 54, 50.76 26.77, 73.22 0.04 M1.44 88.71 C28.68 56.93, 53.39 26.92, 78.2 0.41 M1.44 88.71 C17.63 68.03, 36.55 47.57, 78.2 0.41 M1.18 95.1 C23.09 68.2, 47.99 44.57, 83.85 0.01 M1.18 95.1 C28.33 62.13, 56.31 30.2, 83.85 0.01 M0.92 101.5 C20.35 76.65, 43.2 53.68, 88.83 0.37 M0.92 101.5 C21.12 77.66, 42.26 54.1, 88.83 0.37 M1.32 107.14 C31.3 73.18, 60.61 37.84, 94.48 -0.02 M1.32 107.14 C20.84 84.64, 40.77 61.21, 94.48 -0.02 M1.05 113.54 C32.7 74.41, 65 38.96, 99.46 0.34 M1.05 113.54 C35.24 74.88, 70.07 33.54, 99.46 0.34 M1.45 119.19 C25.89 92.06, 48.57 63.64, 105.11 -0.06 M1.45 119.19 C24.59 95.12, 46.22 69.8, 105.11 -0.06 M1.19 125.58 C37.17 82.05, 76.2 38.83, 110.09 0.3 M1.19 125.58 C28.25 95.14, 55.53 61.7, 110.09 0.3 M0.93 131.98 C27.52 103.38, 51.91 72.69, 115.74 -0.09 M0.93 131.98 C44.72 80.89, 86.55 31.8, 115.74 -0.09 M1.32 137.62 C29.69 107.61, 57.15 72.64, 120.72 0.27 M1.32 137.62 C38.47 94.75, 75.92 50.84, 120.72 0.27 M1.06 144.02 C27.83 111.51, 59.56 75.19, 126.37 -0.13 M1.06 144.02 C46.67 91.46, 93.68 36.67, 126.37 -0.13 M1.45 149.67 C52.14 94.38, 99.43 37.41, 131.35 0.23 M1.45 149.67 C32.15 114.17, 63.75 79.25, 131.35 0.23 M1.19 156.06 C47.57 99.8, 96.83 46.14, 137 -0.16 M1.19 156.06 C38.69 114.49, 75.06 72.9, 137 -0.16 M0.93 162.46 C31.15 128.07, 63.23 90.58, 141.98 0.2 M0.93 162.46 C28.57 130.43, 56.22 99.12, 141.98 0.2 M1.33 168.1 C30.83 128.64, 63.25 93.35, 147.63 -0.2 M1.33 168.1 C51.78 109.63, 103.06 50.06, 147.63 -0.2 M1.72 173.75 C37.3 135.36, 72.11 91.39, 152.61 0.16 M1.72 173.75 C52.32 115.89, 102.54 60.23, 152.61 0.16 M2.77 178.64 C63.87 108.83, 128.69 37.66, 158.26 -0.23 M2.77 178.64 C47.26 124.78, 94.35 71.53, 158.26 -0.23 M4.48 182.77 C56.9 122.07, 111.47 60.47, 163.24 0.13 M4.48 182.77 C43.19 138.55, 80.62 96.41, 163.24 0.13 M6.84 186.15 C38.98 147.86, 71.86 111.27, 168.89 -0.27 M6.84 186.15 C39.55 147.98, 73.79 110.19, 168.89 -0.27 M9.86 188.77 C58.47 134.71, 106.46 78.78, 173.87 0.09 M9.86 188.77 C47.95 141.39, 89.13 95.38, 173.87 0.09 M12.88 191.4 C61.13 136.54, 106.52 82.96, 178.86 0.45 M12.88 191.4 C78.53 116.41, 143.04 42.86, 178.86 0.45 M16.55 193.27 C63.37 139.01, 110.22 84.37, 184.5 0.06 M16.55 193.27 C82.34 117.43, 147.43 40.99, 184.5 0.06 M20.88 194.38 C61.18 149.52, 99.56 106.42, 189.49 0.42 M20.88 194.38 C82.94 124.84, 143.66 53.95, 189.49 0.42 M24.56 196.25 C84.56 126.91, 144.8 57.75, 195.13 0.03 M24.56 196.25 C65.1 150.21, 103.91 104.14, 195.13 0.03 M30.2 195.86 C94.61 121.65, 158.68 48.13, 200.12 0.39 M30.2 195.86 C73.81 147.19, 115.58 99.32, 200.12 0.39 M35.19 196.22 C100.62 120.96, 165.06 47.2, 205.76 -0.01 M35.19 196.22 C72.51 154.56, 108.06 112.32, 205.76 -0.01 M40.18 196.58 C73.84 159.28, 108.54 117.66, 210.75 0.35 M40.18 196.58 C106.13 121.45, 171.01 45.32, 210.75 0.35 M45.82 196.18 C95.44 138.82, 143.92 82.09, 216.39 -0.04 M45.82 196.18 C96.17 135.92, 147.62 76.18, 216.39 -0.04 M50.81 196.54 C107.01 134.7, 161.53 69.35, 221.38 0.32 M50.81 196.54 C103.69 136.42, 156.95 76.17, 221.38 0.32 M56.45 196.15 C94.48 149.72, 134.59 105.02, 227.02 -0.08 M56.45 196.15 C119.04 122.38, 182.8 48.81, 227.02 -0.08 M61.44 196.51 C107.22 144, 156.37 90.21, 232.01 0.28 M61.44 196.51 C127.23 120.84, 192.97 45.3, 232.01 0.28 M67.08 196.11 C103.78 152.91, 138.87 111.86, 237.65 -0.11 M67.08 196.11 C102.77 155.1, 137.83 114.93, 237.65 -0.11 M72.07 196.47 C134.95 125.05, 197.31 49.6, 242.64 0.25 M72.07 196.47 C135.39 125.08, 198.04 52.61, 242.64 0.25 M77.71 196.08 C125.29 143.37, 169.43 91.06, 248.28 -0.15 M77.71 196.08 C127.31 137.42, 178.63 79.88, 248.28 -0.15 M82.7 196.44 C123.85 149.06, 166.85 100.4, 253.27 0.21 M82.7 196.44 C120.59 151.52, 159.82 106.6, 253.27 0.21 M88.34 196.04 C138.53 138.4, 187.68 79.81, 258.91 -0.18 M88.34 196.04 C129.09 148.71, 170.13 100.55, 258.91 -0.18 M93.33 196.4 C141.93 143.62, 187.4 88.91, 263.9 0.18 M93.33 196.4 C152.64 126.75, 213.95 57.17, 263.9 0.18 M98.31 196.76 C165.32 120.42, 230.66 44.18, 269.54 -0.22 M98.31 196.76 C162.38 124.39, 225.08 52.84, 269.54 -0.22 M103.96 196.37 C167.66 124.48, 231.08 50.98, 274.53 0.14 M103.96 196.37 C161.49 130.61, 219 63.47, 274.53 0.14 M108.94 196.73 C165.34 131.83, 222.14 64.28, 279.52 0.5 M108.94 196.73 C155.72 143.22, 202.96 88.59, 279.52 0.5 M114.59 196.33 C180.32 118.77, 249.21 37.75, 284.51 0.86 M114.59 196.33 C177.27 120.61, 241.39 47, 284.51 0.86 M119.57 196.69 C174.15 133.52, 229.81 72.03, 288.18 2.73 M119.57 196.69 C170.56 136.98, 222.01 76.53, 288.18 2.73 M125.22 196.3 C181.37 129.16, 240.79 59.67, 292.51 3.85 M125.22 196.3 C172.65 144.03, 219.53 90.01, 292.51 3.85 M130.2 196.66 C165.51 155.18, 200.45 117.19, 296.19 5.72 M130.2 196.66 C181.1 139.12, 232.01 80.83, 296.19 5.72 M135.85 196.27 C195.12 124.3, 256.82 53.92, 299.21 8.34 M135.85 196.27 C179.14 147.18, 223.15 95.51, 299.21 8.34 M140.83 196.63 C184.73 145.8, 226.91 96.07, 302.22 10.97 M140.83 196.63 C174.78 157.78, 207.61 117.74, 302.22 10.97 M146.48 196.23 C200.62 135.55, 254.61 75.43, 304.59 14.35 M146.48 196.23 C205 129.68, 264.04 61.32, 304.59 14.35 M151.46 196.59 C189.15 153.97, 223.36 112.52, 306.29 18.48 M151.46 196.59 C194.05 145.28, 237.5 95.91, 306.29 18.48 M157.11 196.2 C198.93 148.44, 238.6 104.5, 307.34 23.37 M157.11 196.2 C190.99 158.11, 223.03 119.89, 307.34 23.37 M162.09 196.56 C200 152.67, 237.91 107.5, 307.74 29.01 M162.09 196.56 C205.22 147.96, 248.84 98.94, 307.74 29.01 M167.74 196.16 C216.55 144, 260.93 87.99, 308.79 33.9 M167.74 196.16 C207.53 152.98, 247.2 108.62, 308.79 33.9 M172.72 196.52 C220.23 141.81, 272.03 84.84, 308.53 40.3 M172.72 196.52 C213.74 148.2, 257.46 99.15, 308.53 40.3 M178.37 196.13 C208.53 163.38, 237.17 128.82, 308.92 45.94 M178.37 196.13 C228.57 138.62, 278.32 81.42, 308.92 45.94 M183.35 196.49 C232.49 141.27, 280.07 83.67, 308.66 52.34 M183.35 196.49 C225.4 147.94, 267.22 97.56, 308.66 52.34 M189 196.09 C237.54 144.67, 283.11 92, 308.4 58.74 M189 196.09 C213.42 168.44, 237.28 138.44, 308.4 58.74 M193.98 196.45 C219 169.89, 243.76 138.26, 308.79 64.38 M193.98 196.45 C224.9 162.94, 254.33 128.69, 308.79 64.38 M199.63 196.06 C222.55 170.43, 245.49 145.53, 308.53 70.78 M199.63 196.06 C225.93 166.35, 252.12 135.13, 308.53 70.78 M204.61 196.42 C246.98 150.73, 284.42 103.16, 308.93 76.42 M204.61 196.42 C234.13 162.97, 261.87 130.29, 308.93 76.42 M210.26 196.02 C229.1 173.83, 249.73 147.81, 308.67 82.82 M210.26 196.02 C244.47 156.47, 277.34 118.9, 308.67 82.82 M215.24 196.38 C241.52 166.34, 263.81 141.3, 308.4 89.22 M215.24 196.38 C243.32 163.29, 272.13 130.02, 308.4 89.22 M220.23 196.74 C241.7 170.67, 262.59 145.52, 308.8 94.86 M220.23 196.74 C240.21 173.34, 261.72 149.83, 308.8 94.86 M225.87 196.35 C245.22 171.2, 268.92 146.67, 308.54 101.26 M225.87 196.35 C258.2 160.48, 289.09 122.68, 308.54 101.26 M230.86 196.71 C257.44 166.07, 281.57 138.03, 308.93 106.9 M230.86 196.71 C261.52 161.86, 293.4 126.93, 308.93 106.9 M236.5 196.31 C250.6 178.29, 268.22 161.01, 308.67 113.3 M236.5 196.31 C252.76 176.24, 269.54 157.05, 308.67 113.3 M241.49 196.67 C255.14 179.99, 270.45 161.73, 308.41 119.69 M241.49 196.67 C264.88 171.27, 288.06 143.25, 308.41 119.69 M247.13 196.28 C262.81 181.6, 274.19 164.49, 308.8 125.34 M247.13 196.28 C263.84 175.72, 283.16 152.97, 308.8 125.34 M252.12 196.64 C272.47 173.07, 294.94 146.47, 308.54 131.74 M252.12 196.64 C264.99 181.32, 276.34 167.23, 308.54 131.74 M257.76 196.25 C268.38 182.38, 282.71 168.3, 308.94 137.38 M257.76 196.25 C273.81 177.04, 292.27 158.3, 308.94 137.38 M262.75 196.61 C273.29 181.85, 287.21 172.32, 308.68 143.78 M262.75 196.61 C278.42 177.51, 293.4 159.9, 308.68 143.78 M268.39 196.21 C283.96 176.76, 298.21 158.23, 308.41 150.17 M268.39 196.21 C283.3 179.18, 299.21 160.61, 308.41 150.17 M273.38 196.57 C289.22 181.17, 301.86 165.24, 308.81 155.82 M273.38 196.57 C280.99 186.22, 290.93 176.11, 308.81 155.82 M279.02 196.18 C289.6 183.9, 299.2 171.88, 308.55 162.21 M279.02 196.18 C286.64 188.22, 294.47 179.61, 308.55 162.21 M285.32 195.03 C291.35 188.63, 299.91 178.67, 307.63 169.37 M285.32 195.03 C291.81 186.84, 297.58 180.28, 307.63 169.37 M292.28 193.12 C294.51 187.26, 301.81 182.79, 306.06 177.27 M292.28 193.12 C297.67 186.51, 303.51 180.81, 306.06 177.27" stroke="#e9ecef" stroke-width="0.5" fill="none"></path><path d="M32 0 C123.16 0.7, 213.12 1.1, 276.07 0 M32 0 C118.88 1.74, 204.23 1.32, 276.07 0 M276.07 0 C296.57 -0.83, 306.96 10.04, 308.07 32 M276.07 0 C298.12 0.52, 310.22 8.4, 308.07 32 M308.07 32 C306.46 65.66, 308.58 100.23, 308.07 164.05 M308.07 32 C308.62 63.34, 308.95 94.11, 308.07 164.05 M308.07 164.05 C306.75 186.52, 299.17 196.51, 276.07 196.05 M308.07 164.05 C306.01 183.76, 296.72 195.86, 276.07 196.05 M276.07 196.05 C206.24 196.73, 135.09 197.39, 32 196.05 M276.07 196.05 C185.37 196.36, 94.02 196.12, 32 196.05 M32 196.05 C11.12 194.11, -1.47 183.43, 0 164.05 M32 196.05 C9.63 195.11, -2.21 187.48, 0 164.05 M0 164.05 C0.01 137.52, 1.21 109.21, 0 32 M0 164.05 C1.59 121.76, 1.74 77.57, 0 32 M0 32 C0.09 12.31, 11.53 1.83, 32 0 M0 32 C-0.05 9.53, 11.12 1.14, 32 0" stroke="#1e1e1e" stroke-width="1" fill="none"></path></g><g transform="translate(115.34262664490075 80.32506597572154) rotate(0 48.689971923828125 22.5)"><text x="0" y="0" font-family="Virgil, Segoe UI Emoji" font-size="36px" fill="#1e1e1e" text-anchor="start" style="white-space: pre;" direction="ltr" dominant-baseline="text-before-edge">Client</text></g><g stroke-linecap="round" transform="translate(734.4332807337162 150.922357083311) rotate(0 154.03259856872887 98.02687749181351)"><path d="M7.86 8.16 C7.86 8.16, 7.86 8.16, 7.86 8.16 M7.86 8.16 C7.86 8.16, 7.86 8.16, 7.86 8.16 M2.35 20.59 C6.89 17.92, 10.42 10.48, 18.1 2.48 M2.35 20.59 C7.18 15.69, 11.79 9.58, 18.1 2.48 M1.43 27.75 C5.64 22.99, 13.69 13.91, 24.4 1.33 M1.43 27.75 C9.06 18.38, 18.01 7.36, 24.4 1.33 M1.17 34.14 C13.92 22.17, 23.41 8.69, 30.7 0.18 M1.17 34.14 C7.88 25.85, 16.09 17.83, 30.7 0.18 M0.91 40.54 C12.57 24.42, 26.34 11.96, 36.34 -0.21 M0.91 40.54 C11.09 29.38, 20.19 19.18, 36.34 -0.21 M1.31 46.19 C9.66 36.62, 19.68 24.42, 41.33 0.15 M1.31 46.19 C9.25 36.72, 16.53 28.91, 41.33 0.15 M1.04 52.58 C8.94 39.11, 19.2 29.63, 46.97 -0.25 M1.04 52.58 C16.22 34.77, 32.4 15.5, 46.97 -0.25 M1.44 58.23 C14.16 46.84, 25.18 29.54, 51.96 0.11 M1.44 58.23 C18.36 38.34, 35.74 20.84, 51.96 0.11 M1.18 64.62 C22.48 40.11, 48.19 14.58, 57.6 -0.28 M1.18 64.62 C17.01 45.03, 34.92 25.52, 57.6 -0.28 M0.92 71.02 C19.96 48.24, 41.64 24.72, 62.59 0.08 M0.92 71.02 C16.39 53.49, 31.18 37.59, 62.59 0.08 M1.31 76.67 C14.84 60.09, 28.25 46.16, 67.57 0.44 M1.31 76.67 C14.3 60.77, 28.72 46.14, 67.57 0.44 M1.05 83.06 C22.83 60.13, 44.36 34.47, 73.22 0.04 M1.05 83.06 C17.2 62, 36.22 41.78, 73.22 0.04 M1.44 88.71 C23.94 62.45, 43.8 37.94, 78.2 0.41 M1.44 88.71 C31.96 53.59, 61.39 20.54, 78.2 0.41 M1.18 95.1 C24.67 68.16, 47.48 40.99, 83.85 0.01 M1.18 95.1 C33.83 58.08, 64.86 20.47, 83.85 0.01 M0.92 101.5 C22.44 77.96, 42.16 56.57, 88.83 0.37 M0.92 101.5 C33.24 65.23, 64.5 27.98, 88.83 0.37 M1.32 107.14 C33.18 69.64, 66.19 31.84, 94.48 -0.02 M1.32 107.14 C23.9 81.59, 44.28 56.37, 94.48 -0.02 M1.05 113.54 C37.82 70.33, 74.69 28.14, 99.46 0.34 M1.05 113.54 C26.75 85.08, 50.63 57.84, 99.46 0.34 M1.45 119.19 C41.46 73.29, 80.17 29.23, 105.11 -0.06 M1.45 119.19 C24.6 94.16, 45.44 68.51, 105.11 -0.06 M1.19 125.58 C22.04 102.87, 44.21 75.25, 110.09 0.3 M1.19 125.58 C43.28 77.82, 84.5 28.53, 110.09 0.3 M0.93 131.98 C34.19 92.97, 66.37 54.75, 115.74 -0.09 M0.93 131.98 C34.59 91.44, 69.04 51.12, 115.74 -0.09 M1.32 137.62 C41.36 94.99, 79.75 47.53, 120.72 0.27 M1.32 137.62 C38.4 95.65, 76.01 53.66, 120.72 0.27 M1.06 144.02 C28.66 109.49, 58.35 77.14, 126.37 -0.13 M1.06 144.02 C46.91 89.66, 93.87 35.35, 126.37 -0.13 M1.45 149.67 C35.79 110.31, 74.3 69.47, 131.35 0.23 M1.45 149.67 C51.6 92.02, 101.97 34.17, 131.35 0.23 M1.19 156.06 C30.66 121.54, 58.19 89.12, 137 -0.16 M1.19 156.06 C29.84 123.46, 57.74 91.54, 137 -0.16 M0.93 162.46 C52.95 103.69, 104.16 40.73, 141.98 0.2 M0.93 162.46 C53.43 103.51, 105.39 43.32, 141.98 0.2 M1.33 168.1 C42.34 122.9, 79.69 78.26, 147.63 -0.2 M1.33 168.1 C43.74 117.74, 87.95 68.51, 147.63 -0.2 M1.72 173.75 C38.03 131.9, 76.2 88.84, 152.61 0.16 M1.72 173.75 C35.25 133.93, 69.99 94.18, 152.61 0.16 M2.77 178.64 C48.48 126.08, 93.23 72.46, 158.26 -0.23 M2.77 178.64 C39.88 135.51, 77.17 91.61, 158.26 -0.23 M4.48 182.77 C49.85 133.72, 92.02 82.72, 163.24 0.13 M4.48 182.77 C59.6 117.92, 116.71 53.2, 163.24 0.13 M6.84 186.15 C70.3 113.95, 132.02 41.85, 168.89 -0.27 M6.84 186.15 C67.55 117.64, 126.89 49.96, 168.89 -0.27 M9.86 188.77 C71.09 119.67, 132.06 48.97, 173.87 0.09 M9.86 188.77 C65.17 125.57, 120.45 60.98, 173.87 0.09 M12.88 191.4 C67.73 128.29, 122.99 62.48, 178.86 0.45 M12.88 191.4 C58.41 139.34, 104.37 86.17, 178.86 0.45 M16.55 193.27 C81.5 116.62, 149.62 36.48, 184.5 0.06 M16.55 193.27 C78.5 118.4, 141.88 45.65, 184.5 0.06 M20.88 194.38 C75.46 131.21, 131.12 69.71, 189.49 0.42 M20.88 194.38 C71.87 134.66, 123.32 74.22, 189.49 0.42 M24.56 196.25 C81.87 127.78, 142.44 56.97, 195.13 0.03 M24.56 196.25 C72.92 142.93, 120.72 87.84, 195.13 0.03 M30.2 195.86 C66.34 153.43, 102.11 114.46, 200.12 0.39 M30.2 195.86 C82.31 136.94, 134.41 77.27, 200.12 0.39 M35.19 196.22 C97.13 121.16, 161.49 47.71, 205.76 -0.01 M35.19 196.22 C80.44 144.9, 126.39 91.02, 205.76 -0.01 M40.18 196.58 C86.5 142.9, 131.2 90.31, 210.75 0.35 M40.18 196.58 C76.02 155.49, 110.8 113.27, 210.75 0.35 M45.82 196.18 C104.16 130.71, 162.33 65.7, 216.39 -0.04 M45.82 196.18 C108.96 124.31, 172.61 50.67, 216.39 -0.04 M50.81 196.54 C92.12 149.67, 130.05 104.03, 221.38 0.32 M50.81 196.54 C97.81 140.09, 145.72 85.56, 221.38 0.32 M56.45 196.15 C103.81 142.15, 149.04 91.73, 227.02 -0.08 M56.45 196.15 C94.8 152.87, 131.48 109.4, 227.02 -0.08 M61.44 196.51 C105.99 145.08, 150.4 92.55, 232.01 0.28 M61.44 196.51 C111.99 139.65, 162.81 82.27, 232.01 0.28 M67.08 196.11 C125.7 132.64, 180.06 65.57, 237.65 -0.11 M67.08 196.11 C115.12 143.7, 162.82 89.99, 237.65 -0.11 M72.07 196.47 C132.16 127.18, 196.35 55.69, 242.64 0.25 M72.07 196.47 C124.01 135.58, 178.59 73.91, 242.64 0.25 M77.71 196.08 C116.33 152.9, 153.94 108.35, 248.28 -0.15 M77.71 196.08 C142.97 121.17, 208.01 46.38, 248.28 -0.15 M82.7 196.44 C148.98 120.8, 214.28 43.37, 253.27 0.21 M82.7 196.44 C140.02 130.03, 197.25 62.39, 253.27 0.21 M88.34 196.04 C156.37 121.88, 221.75 46.47, 258.91 -0.18 M88.34 196.04 C123.18 155.9, 158.04 113.76, 258.91 -0.18 M93.33 196.4 C130.66 155.64, 167.79 110.41, 263.9 0.18 M93.33 196.4 C138.59 146.45, 182.32 95.82, 263.9 0.18 M98.31 196.76 C134.28 156.85, 169.79 117.19, 269.54 -0.22 M98.31 196.76 C139.44 149.72, 180.22 101.94, 269.54 -0.22 M103.96 196.37 C171.88 120.34, 235.8 43.22, 274.53 0.14 M103.96 196.37 C151.55 141.7, 197.79 87.89, 274.53 0.14 M108.94 196.73 C142.45 157.23, 177.47 115.11, 279.52 0.5 M108.94 196.73 C167.87 128.79, 225.72 62.43, 279.52 0.5 M114.59 196.33 C161.34 143.12, 204.53 93.92, 284.51 0.86 M114.59 196.33 C166.1 135.69, 218.83 74.92, 284.51 0.86 M119.57 196.69 C160.63 148.08, 201.07 100.66, 288.18 2.73 M119.57 196.69 C158.08 151.96, 197.56 107.55, 288.18 2.73 M125.22 196.3 C166.74 145.61, 211.78 96, 292.51 3.85 M125.22 196.3 C189.77 122.63, 253.52 47.46, 292.51 3.85 M130.2 196.66 C185.29 132.11, 238.96 70.15, 296.19 5.72 M130.2 196.66 C195.94 122.31, 262.03 47.7, 296.19 5.72 M135.85 196.27 C169.14 155.12, 206.02 115.14, 299.21 8.34 M135.85 196.27 C173.56 151.55, 211.64 107.83, 299.21 8.34 M140.83 196.63 C174.55 156.17, 210.04 114.79, 302.22 10.97 M140.83 196.63 C196.42 133.61, 252.61 67.85, 302.22 10.97 M146.48 196.23 C184.65 155.38, 218.68 112.89, 304.59 14.35 M146.48 196.23 C191.15 142.24, 238.91 86.86, 304.59 14.35 M151.46 196.59 C209.37 129.57, 268.93 60.42, 306.29 18.48 M151.46 196.59 C185.94 156.13, 219.32 116.87, 306.29 18.48 M157.11 196.2 C191.74 155.56, 228.81 114.97, 307.34 23.37 M157.11 196.2 C206.09 139.23, 256.75 83.08, 307.34 23.37 M162.09 196.56 C196.86 154.01, 235.25 115.44, 307.74 29.01 M162.09 196.56 C211.81 137.71, 260.99 80.8, 307.74 29.01 M167.74 196.16 C223.42 130.93, 277.94 66.33, 308.79 33.9 M167.74 196.16 C221.69 133.83, 276.72 70.29, 308.79 33.9 M172.72 196.52 C227.88 135.45, 280.14 74.1, 308.53 40.3 M172.72 196.52 C204.7 157.09, 239.66 118.04, 308.53 40.3 M178.37 196.13 C223.35 144.97, 266.63 94.2, 308.92 45.94 M178.37 196.13 C211.53 159.8, 244.4 122.37, 308.92 45.94 M183.35 196.49 C222.83 151.67, 264.36 103.78, 308.66 52.34 M183.35 196.49 C220.01 152.18, 256.47 110.31, 308.66 52.34 M189 196.09 C223.54 154.49, 262.18 113.97, 308.4 58.74 M189 196.09 C234.27 141.37, 281.11 88.5, 308.4 58.74 M193.98 196.45 C223.97 161.05, 256.15 123.26, 308.79 64.38 M193.98 196.45 C221.36 163.4, 250.77 131.37, 308.79 64.38 M199.63 196.06 C241.51 148.42, 282.36 99.07, 308.53 70.78 M199.63 196.06 C243.28 146.71, 286.41 95.34, 308.53 70.78 M204.61 196.42 C231.58 168, 257.22 134.22, 308.93 76.42 M204.61 196.42 C231.6 164.54, 259.32 134.86, 308.93 76.42 M210.26 196.02 C240.92 159.81, 273.35 123.1, 308.67 82.82 M210.26 196.02 C246.77 152.34, 284.6 110.05, 308.67 82.82 M215.24 196.38 C249.83 156.03, 288.7 116, 308.4 89.22 M215.24 196.38 C243.97 162.13, 274.91 129.16, 308.4 89.22 M220.23 196.74 C245.15 167.59, 269.34 137.61, 308.8 94.86 M220.23 196.74 C249.58 162.81, 279.89 128.25, 308.8 94.86 M225.87 196.35 C252.53 164.84, 280.41 131.56, 308.54 101.26 M225.87 196.35 C244.38 176.01, 261.73 155.4, 308.54 101.26 M230.86 196.71 C255.25 167.59, 279.94 140.42, 308.93 106.9 M230.86 196.71 C262 160.51, 292.4 127.83, 308.93 106.9 M236.5 196.31 C258.3 167.77, 281.33 143.26, 308.67 113.3 M236.5 196.31 C261.71 168.6, 286.27 140.04, 308.67 113.3 M241.49 196.67 C258.98 177.23, 272.46 161.54, 308.41 119.69 M241.49 196.67 C265.79 168.9, 290.66 140.43, 308.41 119.69 M247.13 196.28 C263.19 174.87, 279.2 156.55, 308.8 125.34 M247.13 196.28 C265.55 174.64, 285.5 151.95, 308.8 125.34 M252.12 196.64 C273.05 174.88, 292.53 153.91, 308.54 131.74 M252.12 196.64 C274.24 171.89, 295.09 146.01, 308.54 131.74 M257.76 196.25 C275.44 175.13, 289.14 159.25, 308.94 137.38 M257.76 196.25 C275.85 176.93, 293.42 156.22, 308.94 137.38 M262.75 196.61 C280.83 176.11, 299.61 154.27, 308.68 143.78 M262.75 196.61 C277.92 178.95, 292.48 161.9, 308.68 143.78 M268.39 196.21 C280.63 184.42, 291.03 172.85, 308.41 150.17 M268.39 196.21 C278.5 185.66, 287.85 175.2, 308.41 150.17 M273.38 196.57 C286 181.9, 299.24 168.07, 308.81 155.82 M273.38 196.57 C283.97 182.84, 294.93 171.4, 308.81 155.82 M279.02 196.18 C287.7 185.66, 295.89 175.41, 308.55 162.21 M279.02 196.18 C285.68 186.62, 294.03 178.7, 308.55 162.21 M285.32 195.03 C293.19 187, 297.08 179.17, 307.63 169.37 M285.32 195.03 C290.08 189.96, 295.65 183.01, 307.63 169.37 M292.28 193.12 C297.79 188.46, 302.3 182.54, 306.06 177.27 M292.28 193.12 C295.02 188.6, 298.44 186.61, 306.06 177.27" stroke="#e9ecef" stroke-width="0.5" fill="none"></path><path d="M32 0 C112.77 -0.15, 192.06 -0.19, 276.07 0 M32 0 C90.74 1.83, 148.55 1.62, 276.07 0 M276.07 0 C299.23 -1.48, 308.05 9.15, 308.07 32 M276.07 0 C298.03 -1.5, 306.33 10.43, 308.07 32 M308.07 32 C306.88 57.19, 306.46 84.21, 308.07 164.05 M308.07 32 C307.62 59.39, 308.08 86.39, 308.07 164.05 M308.07 164.05 C308.77 185.63, 297.67 195.17, 276.07 196.05 M308.07 164.05 C306.05 185.8, 296.07 195.93, 276.07 196.05 M276.07 196.05 C210.59 195.12, 144.03 193.68, 32 196.05 M276.07 196.05 C219.59 197.82, 161.43 197.44, 32 196.05 M32 196.05 C11.38 197.14, -1.97 184.04, 0 164.05 M32 196.05 C11.44 198.31, 0.84 187.25, 0 164.05 M0 164.05 C-2.4 128.2, 0.63 94.34, 0 32 M0 164.05 C0.53 114.9, -0.41 64.55, 0 32 M0 32 C-0.8 11.99, 9.74 0.95, 32 0 M0 32 C-1.17 10.78, 12.43 -0.66, 32 0" stroke="#1e1e1e" stroke-width="1" fill="none"></path></g><g transform="translate(834.1059092096716 80.32506597572154) rotate(0 54.35997009277344 22.5)"><text x="0" y="0" font-family="Virgil, Segoe UI Emoji" font-size="36px" fill="#1e1e1e" text-anchor="start" style="white-space: pre;" direction="ltr" dominant-baseline="text-before-edge">server</text></g><g stroke-linecap="round" transform="translate(1154.4326429483078 150.922357083311) rotate(0 154.03259856872887 98.02687749181351)"><path d="M7.86 8.16 C7.86 8.16, 7.86 8.16, 7.86 8.16 M7.86 8.16 C7.86 8.16, 7.86 8.16, 7.86 8.16 M2.35 20.59 C6.34 16.69, 10.5 10.18, 18.1 2.48 M2.35 20.59 C6.36 16.79, 9.9 13.08, 18.1 2.48 M1.43 27.75 C6.73 20.28, 15.08 13.37, 24.4 1.33 M1.43 27.75 C8.87 18.62, 17.67 8.53, 24.4 1.33 M1.17 34.14 C8.66 22.9, 20.29 13.2, 30.7 0.18 M1.17 34.14 C11.17 22.57, 21.11 12.49, 30.7 0.18 M0.91 40.54 C9.22 29.95, 20.41 18.84, 36.34 -0.21 M0.91 40.54 C13.87 26.34, 25.18 12.08, 36.34 -0.21 M1.31 46.19 C9.41 37, 19.58 24.51, 41.33 0.15 M1.31 46.19 C18.01 28.34, 33.61 10.61, 41.33 0.15 M1.04 52.58 C15.35 38.93, 26.74 25.91, 46.97 -0.25 M1.04 52.58 C17.61 33.57, 34.47 13.69, 46.97 -0.25 M1.44 58.23 C16.62 41.47, 27.83 27.26, 51.96 0.11 M1.44 58.23 C14.39 43.98, 26.92 27.83, 51.96 0.11 M1.18 64.62 C13.06 47.86, 25.9 32.91, 57.6 -0.28 M1.18 64.62 C15.31 47.99, 29.82 32.37, 57.6 -0.28 M0.92 71.02 C17.72 52.38, 36.14 27.95, 62.59 0.08 M0.92 71.02 C13.74 56.36, 27.35 39.61, 62.59 0.08 M1.31 76.67 C18 58.37, 33.57 38.23, 67.57 0.44 M1.31 76.67 C24.38 49.43, 49.37 21.33, 67.57 0.44 M1.05 83.06 C29.32 50.56, 55.63 17.71, 73.22 0.04 M1.05 83.06 C16.58 65.71, 31.29 49.97, 73.22 0.04 M1.44 88.71 C27.4 59.21, 54.4 28.25, 78.2 0.41 M1.44 88.71 C20.07 67.62, 38.42 45.83, 78.2 0.41 M1.18 95.1 C17.72 73.12, 36.56 54.78, 83.85 0.01 M1.18 95.1 C33.35 58.65, 63.31 24.42, 83.85 0.01 M0.92 101.5 C19.82 80.41, 39.01 57.91, 88.83 0.37 M0.92 101.5 C31.57 65.02, 61.12 29.66, 88.83 0.37 M1.32 107.14 C29.35 76.8, 57.3 43.71, 94.48 -0.02 M1.32 107.14 C33.86 68.88, 67.19 30.48, 94.48 -0.02 M1.05 113.54 C29.38 80.35, 56.67 46.75, 99.46 0.34 M1.05 113.54 C29.65 80.33, 59.12 48.66, 99.46 0.34 M1.45 119.19 C34.51 77.82, 68.9 40.97, 105.11 -0.06 M1.45 119.19 C39.85 72.85, 79.63 27.96, 105.11 -0.06 M1.19 125.58 C31.94 84.49, 67.74 48.62, 110.09 0.3 M1.19 125.58 C24.7 99.05, 47.39 73.41, 110.09 0.3 M0.93 131.98 C23.96 102.69, 48.47 77.94, 115.74 -0.09 M0.93 131.98 C40.77 86.22, 79.77 39.67, 115.74 -0.09 M1.32 137.62 C36.73 96.76, 73.44 52.45, 120.72 0.27 M1.32 137.62 C47.08 84.7, 94.59 31.32, 120.72 0.27 M1.06 144.02 C36.03 105.12, 69.68 69.15, 126.37 -0.13 M1.06 144.02 C47.94 88.71, 96.37 33.02, 126.37 -0.13 M1.45 149.67 C32.35 114.41, 62.43 77.99, 131.35 0.23 M1.45 149.67 C35.57 109.77, 69.22 70.38, 131.35 0.23 M1.19 156.06 C35.41 116.66, 68.61 77.01, 137 -0.16 M1.19 156.06 C37.39 113.67, 73.42 71.04, 137 -0.16 M0.93 162.46 C49.19 106.13, 100.64 46.69, 141.98 0.2 M0.93 162.46 C56.79 98.78, 112.84 34.78, 141.98 0.2 M1.33 168.1 C41.19 122.24, 81.95 75.18, 147.63 -0.2 M1.33 168.1 C30.34 131.27, 61.51 97.18, 147.63 -0.2 M1.72 173.75 C38.32 129.1, 75.17 86.04, 152.61 0.16 M1.72 173.75 C46.18 123.02, 90.12 72.14, 152.61 0.16 M2.77 178.64 C52.92 121.29, 100.95 66.24, 158.26 -0.23 M2.77 178.64 C43.37 132.55, 83.82 85.06, 158.26 -0.23 M4.48 182.77 C66.39 112.16, 126.74 41.86, 163.24 0.13 M4.48 182.77 C37.49 145.46, 70.31 107.83, 163.24 0.13 M6.84 186.15 C56.95 127.36, 108.22 69.82, 168.89 -0.27 M6.84 186.15 C59.58 126.71, 111.4 67.76, 168.89 -0.27 M9.86 188.77 C69.82 120.62, 127.92 53.97, 173.87 0.09 M9.86 188.77 C63.63 126, 116.33 64.64, 173.87 0.09 M12.88 191.4 C54.29 142.72, 97.13 94.64, 178.86 0.45 M12.88 191.4 C66.44 131.36, 119.11 71.52, 178.86 0.45 M16.55 193.27 C61.62 143.47, 106.84 91.99, 184.5 0.06 M16.55 193.27 C80.75 118.62, 144.44 45.49, 184.5 0.06 M20.88 194.38 C70.66 137.56, 120.1 80.98, 189.49 0.42 M20.88 194.38 C59.11 149.24, 97.05 104.26, 189.49 0.42 M24.56 196.25 C78.39 134.18, 131.09 71.16, 195.13 0.03 M24.56 196.25 C65.94 148.35, 105.27 101.46, 195.13 0.03 M30.2 195.86 C70.77 151.27, 111.24 102.09, 200.12 0.39 M30.2 195.86 C75.33 142.27, 121.18 88.47, 200.12 0.39 M35.19 196.22 C73.34 153.24, 113.11 110.73, 205.76 -0.01 M35.19 196.22 C89.55 132.58, 143.94 72.18, 205.76 -0.01 M40.18 196.58 C86.63 141.65, 135.97 84.94, 210.75 0.35 M40.18 196.58 C90.25 135.77, 142.28 76.77, 210.75 0.35 M45.82 196.18 C84.84 155.44, 123.37 112.68, 216.39 -0.04 M45.82 196.18 C107.5 126.99, 168.49 57.2, 216.39 -0.04 M50.81 196.54 C92.41 149.96, 130.68 101.89, 221.38 0.32 M50.81 196.54 C86.62 154.16, 122.52 111.44, 221.38 0.32 M56.45 196.15 C98.72 148.32, 137.55 100.74, 227.02 -0.08 M56.45 196.15 C101.14 145.35, 145.8 94.97, 227.02 -0.08 M61.44 196.51 C114 136.49, 167.78 75.16, 232.01 0.28 M61.44 196.51 C122.6 127.9, 182.11 57.99, 232.01 0.28 M67.08 196.11 C124.23 128.74, 181.37 64.88, 237.65 -0.11 M67.08 196.11 C109.85 144.99, 153.24 93.4, 237.65 -0.11 M72.07 196.47 C125.56 132.58, 180.32 70.05, 242.64 0.25 M72.07 196.47 C120.23 139.09, 169.84 81.98, 242.64 0.25 M77.71 196.08 C119.56 145.78, 162.35 96.36, 248.28 -0.15 M77.71 196.08 C131.89 132.61, 186.87 69.5, 248.28 -0.15 M82.7 196.44 C138.39 134.01, 191.85 70.42, 253.27 0.21 M82.7 196.44 C125.62 149.14, 167.03 100.19, 253.27 0.21 M88.34 196.04 C131.29 144.28, 174.48 96.61, 258.91 -0.18 M88.34 196.04 C152.13 122.15, 215.19 50.37, 258.91 -0.18 M93.33 196.4 C151.26 128.79, 210.16 61.7, 263.9 0.18 M93.33 196.4 C142.69 142.05, 189.65 87.27, 263.9 0.18 M98.31 196.76 C154.37 134.16, 209.18 71.34, 269.54 -0.22 M98.31 196.76 C141.65 148.05, 183.77 97.44, 269.54 -0.22 M103.96 196.37 C144.64 148.77, 187.44 99.39, 274.53 0.14 M103.96 196.37 C153.63 136.98, 203.91 78.68, 274.53 0.14 M108.94 196.73 C167.87 128.41, 227.23 62.48, 279.52 0.5 M108.94 196.73 C172.76 123.62, 236.54 51.34, 279.52 0.5 M114.59 196.33 C163.79 138.81, 215.1 83.09, 284.51 0.86 M114.59 196.33 C154.43 150.76, 194.24 106.96, 284.51 0.86 M119.57 196.69 C169.87 139.44, 219.8 81.15, 288.18 2.73 M119.57 196.69 C163.47 148.78, 205.08 100.13, 288.18 2.73 M125.22 196.3 C185.57 127.35, 244.31 61.88, 292.51 3.85 M125.22 196.3 C169.93 144.65, 215.49 93.39, 292.51 3.85 M130.2 196.66 C179.39 140.13, 229 82.09, 296.19 5.72 M130.2 196.66 C195.4 123.02, 258.17 49.76, 296.19 5.72 M135.85 196.27 C184.72 137.3, 235.02 80.78, 299.21 8.34 M135.85 196.27 C171.68 154.31, 209.66 111.85, 299.21 8.34 M140.83 196.63 C197.48 131.5, 254.43 65.63, 302.22 10.97 M140.83 196.63 C199.66 128.2, 261.1 58.7, 302.22 10.97 M146.48 196.23 C188.87 148.99, 227.26 103.28, 304.59 14.35 M146.48 196.23 C204.37 129.43, 263.46 61.36, 304.59 14.35 M151.46 196.59 C212.04 130.55, 269.7 62.98, 306.29 18.48 M151.46 196.59 C209.66 127.66, 268.61 59.49, 306.29 18.48 M157.11 196.2 C197.98 146.03, 241.14 95.04, 307.34 23.37 M157.11 196.2 C188.4 160.13, 220.17 125.43, 307.34 23.37 M162.09 196.56 C192.1 161.5, 223.28 127.28, 307.74 29.01 M162.09 196.56 C210.19 144.17, 255.62 91.41, 307.74 29.01 M167.74 196.16 C212.47 146.1, 259.21 95.33, 308.79 33.9 M167.74 196.16 C207.65 148.83, 246.39 103.57, 308.79 33.9 M172.72 196.52 C225.39 138.3, 278.27 76.14, 308.53 40.3 M172.72 196.52 C199.65 163.43, 227.16 131.64, 308.53 40.3 M178.37 196.13 C209.98 156.89, 246.78 116.85, 308.92 45.94 M178.37 196.13 C228.49 141.26, 275.55 85.71, 308.92 45.94 M183.35 196.49 C229.23 144.13, 273.01 95.64, 308.66 52.34 M183.35 196.49 C211.21 163.15, 241.22 128.89, 308.66 52.34 M189 196.09 C220.77 159.29, 251.36 124.6, 308.4 58.74 M189 196.09 C224.4 153.06, 261.33 112.34, 308.4 58.74 M193.98 196.45 C225.42 159.93, 256.83 125.76, 308.79 64.38 M193.98 196.45 C229.45 155.08, 267.02 111.44, 308.79 64.38 M199.63 196.06 C223.76 168.05, 250.1 138.18, 308.53 70.78 M199.63 196.06 C235.82 153.21, 274.8 109.8, 308.53 70.78 M204.61 196.42 C227.26 171.22, 248.56 146.51, 308.93 76.42 M204.61 196.42 C239.47 157.66, 274.07 117.02, 308.93 76.42 M210.26 196.02 C244.47 157.27, 275.22 116.25, 308.67 82.82 M210.26 196.02 C229.7 174.45, 249.69 150.21, 308.67 82.82 M215.24 196.38 C248.37 159.88, 280.46 120.28, 308.4 89.22 M215.24 196.38 C239.63 167.36, 263.1 140.62, 308.4 89.22 M220.23 196.74 C248.7 162.21, 281.06 126.84, 308.8 94.86 M220.23 196.74 C240.28 174.03, 260.98 151.83, 308.8 94.86 M225.87 196.35 C257.04 162.39, 285.78 124.85, 308.54 101.26 M225.87 196.35 C248.26 171.06, 267.89 146.71, 308.54 101.26 M230.86 196.71 C260.42 159.12, 291.41 125.49, 308.93 106.9 M230.86 196.71 C262.69 161.08, 292.9 124.91, 308.93 106.9 M236.5 196.31 C252.84 174.75, 274.22 151.13, 308.67 113.3 M236.5 196.31 C265.23 163.42, 293.92 129.01, 308.67 113.3 M241.49 196.67 C260.62 175.03, 280.24 154.25, 308.41 119.69 M241.49 196.67 C265.01 171.22, 287.87 144.45, 308.41 119.69 M247.13 196.28 C267.19 172.91, 288.67 149.67, 308.8 125.34 M247.13 196.28 C264.66 174.33, 284.26 151.92, 308.8 125.34 M252.12 196.64 C274.61 170.88, 292.36 147.96, 308.54 131.74 M252.12 196.64 C272.17 174.34, 290.91 150.11, 308.54 131.74 M257.76 196.25 C267.56 182.5, 281.93 170.11, 308.94 137.38 M257.76 196.25 C277.2 174.99, 295.25 154.31, 308.94 137.38 M262.75 196.61 C274.01 182.26, 287.54 167.35, 308.68 143.78 M262.75 196.61 C276.6 180.57, 290.85 163.73, 308.68 143.78 M268.39 196.21 C275.7 187.89, 283.99 175.17, 308.41 150.17 M268.39 196.21 C279.42 185.29, 287.84 173.41, 308.41 150.17 M273.38 196.57 C278.49 190.25, 286.55 179.96, 308.81 155.82 M273.38 196.57 C286.72 180.77, 300.09 166.48, 308.81 155.82 M279.02 196.18 C288.21 181.76, 299.64 171.26, 308.55 162.21 M279.02 196.18 C286.31 189, 291.63 181.69, 308.55 162.21 M285.32 195.03 C292.69 185.2, 299.86 179.2, 307.63 169.37 M285.32 195.03 C293.33 185.47, 300.24 176.73, 307.63 169.37 M292.28 193.12 C293.48 189.2, 299.14 185.31, 306.06 177.27 M292.28 193.12 C295.64 188.14, 300.59 184.96, 306.06 177.27" stroke="#e9ecef" stroke-width="0.5" fill="none"></path><path d="M32 0 C109.85 -1.25, 187.96 -2.27, 276.07 0 M32 0 C94.12 1.42, 155.58 0.88, 276.07 0 M276.07 0 C298.48 1.67, 309.97 10.12, 308.07 32 M276.07 0 C298.96 -0.96, 310.06 12.09, 308.07 32 M308.07 32 C307.41 73.5, 307.48 109.41, 308.07 164.05 M308.07 32 C307.24 81.84, 306.86 132.33, 308.07 164.05 M308.07 164.05 C306.32 185.84, 297.09 197.48, 276.07 196.05 M308.07 164.05 C308.16 185.38, 299.46 197.13, 276.07 196.05 M276.07 196.05 C204.16 197.61, 131.22 196.12, 32 196.05 M276.07 196.05 C198.55 195.06, 120.85 196.47, 32 196.05 M32 196.05 C10.08 196.56, -1.03 186.45, 0 164.05 M32 196.05 C9.92 196.23, -1.92 187.2, 0 164.05 M0 164.05 C-1.53 119.18, -0.37 76.8, 0 32 M0 164.05 C-0.97 137.51, -0.77 109.08, 0 32 M0 32 C1.75 9.01, 9.97 1.47, 32 0 M0 32 C-2.1 8.65, 9.46 -2.19, 32 0" stroke="#1e1e1e" stroke-width="1" fill="none"></path></g><g transform="translate(1227.9338174100735 84.367406857606) rotate(0 85.1939697265625 22.5)"><text x="0" y="0" font-family="Virgil, Segoe UI Emoji" font-size="36px" fill="#1e1e1e" text-anchor="start" style="white-space: pre;" direction="ltr" dominant-baseline="text-before-edge">database</text></g><g stroke-linecap="round"><g transform="translate(635.4560829683719 75.16006529985401) rotate(0 0 161.02289671065375)"><path d="M0.94 -0.2 C1.17 53.38, 1.18 268.81, 0.83 322.61" stroke="#1e1e1e" stroke-width="1.5" fill="none" stroke-dasharray="8 9"></path></g></g><mask></mask><g stroke-linecap="round"><g transform="translate(1057.3423027040074 228.97440306937432) rotate(0 43.128333923610626 -0.2341343118782504)"><path d="M-0.52 -1.2 C13.91 -1.39, 72.17 -0.37, 86.75 -0.4 M1.41 0.79 C15.71 0.74, 71.87 1.4, 86.06 1.17" stroke="#1e1e1e" stroke-width="1" fill="none"></path></g><g transform="translate(1057.3423027040074 228.97440306937432) rotate(0 43.128333923610626 -0.2341343118782504)"><path d="M62.57 9.73 C67.92 7.96, 77.43 5.62, 86.06 1.17 M62.57 9.73 C68.72 8.25, 73.76 5.75, 86.06 1.17" stroke="#1e1e1e" stroke-width="1" fill="none"></path></g><g transform="translate(1057.3423027040074 228.97440306937432) rotate(0 43.128333923610626 -0.2341343118782504)"><path d="M62.57 -7.37 C68.02 -3.76, 77.53 -0.71, 86.06 1.17 M62.57 -7.37 C68.81 -5.05, 73.85 -3.75, 86.06 1.17" stroke="#1e1e1e" stroke-width="1" fill="none"></path></g></g><mask></mask><g stroke-linecap="round"><g transform="translate(1134.2772502359394 275.6464986964984) rotate(0 -40.132208407202256 -0.22421336645967926)"><path d="M-0.14 -0.43 C-13.56 -0.76, -67.27 -1.06, -80.77 -1.14 M-1.67 -1.7 C-15.27 -1.96, -69.15 -0.28, -81.98 0.04" stroke="#1e1e1e" stroke-width="1" fill="none"></path></g><g transform="translate(1134.2772502359394 275.6464986964984) rotate(0 -40.132208407202256 -0.22421336645967926)"><path d="M-58.74 -9.16 C-65.9 -7.45, -72.83 -5.48, -81.98 0.04 M-58.74 -9.16 C-64.47 -6.06, -70.91 -4.85, -81.98 0.04" stroke="#1e1e1e" stroke-width="1" fill="none"></path></g><g transform="translate(1134.2772502359394 275.6464986964984) rotate(0 -40.132208407202256 -0.22421336645967926)"><path d="M-58.26 7.94 C-65.68 4.86, -72.74 2.04, -81.98 0.04 M-58.26 7.94 C-64.23 6.51, -70.8 3.21, -81.98 0.04" stroke="#1e1e1e" stroke-width="1" fill="none"></path></g></g><mask></mask><g transform="translate(1069.9487141865861 167.2904805532279) rotate(0 26.767982482910156 17.5)"><text x="0" y="0" font-family="Virgil, Segoe UI Emoji" font-size="28px" fill="#1e1e1e" text-anchor="start" style="white-space: pre;" direction="ltr" dominant-baseline="text-before-edge">SQL</text></g><g stroke-linecap="round"><g transform="translate(709.4385571437372 188.98505627619954) rotate(0 -182.0751428888608 0)"><path d="M0.51 0.3 C-60.15 0.18, -303.3 -0.24, -364.05 -0.49 M-0.69 -0.58 C-61.48 -0.57, -304.28 0.78, -364.95 0.79" stroke="#1e1e1e" stroke-width="1" fill="none"></path></g><g transform="translate(709.4385571437372 188.98505627619954) rotate(0 -182.0751428888608 0)"><path d="M-341.48 -7.83 C-347.74 -5.07, -355.85 -2.48, -364.95 0.79 M-341.48 -7.83 C-345.53 -5.26, -351.49 -3.97, -364.95 0.79" stroke="#1e1e1e" stroke-width="1" fill="none"></path></g><g transform="translate(709.4385571437372 188.98505627619954) rotate(0 -182.0751428888608 0)"><path d="M-341.43 9.27 C-347.74 7.08, -355.86 4.73, -364.95 0.79 M-341.43 9.27 C-345.41 8.41, -351.38 6.27, -364.95 0.79" stroke="#1e1e1e" stroke-width="1" fill="none"></path></g></g><mask></mask><g stroke-linecap="round"><g transform="translate(347.93517960369013 304.92528671036007) rotate(0 173.82290048969378 0)"><path d="M-0.47 -0.27 C57.53 -0.34, 290.12 -0.85, 348.21 -0.76 M1.48 -1.45 C59.36 -1.36, 289.88 -0.16, 347.56 0.39" stroke="#1e1e1e" stroke-width="1" fill="none"></path></g><g transform="translate(347.93517960369013 304.92528671036007) rotate(0 173.82290048969378 0)"><path d="M324.01 8.77 C331.01 7.16, 337.62 4.35, 347.56 0.39 M324.01 8.77 C331.61 6.22, 339.88 2.67, 347.56 0.39" stroke="#1e1e1e" stroke-width="1" fill="none"></path></g><g transform="translate(347.93517960369013 304.92528671036007) rotate(0 173.82290048969378 0)"><path d="M324.13 -8.33 C331.05 -4.55, 337.62 -1.97, 347.56 0.39 M324.13 -8.33 C331.82 -5.29, 340.05 -3.24, 347.56 0.39" stroke="#1e1e1e" stroke-width="1" fill="none"></path></g></g><mask></mask><g transform="translate(463.58846695987904 124.17023987691181) rotate(0 50.75999450683594 22.5)"><text x="0" y="0" font-family="Virgil, Segoe UI Emoji" font-size="36px" fill="#1e1e1e" text-anchor="start" style="white-space: pre;" direction="ltr" dominant-baseline="text-before-edge">HTTP</text></g><g transform="translate(571.6077206772773 10) rotate(0 68.52597045898438 22.5)"><text x="0" y="0" font-family="Virgil, Segoe UI Emoji" font-size="36px" fill="#1e1e1e" text-anchor="start" style="white-space: pre;" direction="ltr" dominant-baseline="text-before-edge">internet</text></g><g transform="translate(114.4576783135642 394.01147078734147) rotate(0 59.147979736328125 22.5)"><text x="0" y="0" font-family="Virgil, Segoe UI Emoji" font-size="36px" fill="#1971c2" text-anchor="start" style="white-space: pre;" direction="ltr" dominant-baseline="text-before-edge">next.js</text></g><g transform="translate(828.3014482050662 394.01147078734147) rotate(0 59.147979736328125 22.5)"><text x="0" y="0" font-family="Virgil, Segoe UI Emoji" font-size="36px" fill="#1971c2" text-anchor="start" style="white-space: pre;" direction="ltr" dominant-baseline="text-before-edge">next.js</text></g><g transform="translate(1200.4559527464905 394.01147078734147) rotate(0 105.31796264648438 22.5)"><text x="0" y="0" font-family="Virgil, Segoe UI Emoji" font-size="36px" fill="#f08c00" text-anchor="start" style="white-space: pre;" direction="ltr" dominant-baseline="text-before-edge">PostgresDB</text></g></svg>